# Blender v2.78 (sub 0) OBJ File: ''
# www.blender.org
mtllib seg_2.mtl
o Seg_2
v -0.052665 0.000000 -0.140445
v -0.052665 0.000000 0.140445
v -0.111803 0.000000 0.100000
v -0.052658 0.053749 0.129762
v -0.111803 0.000000 -0.100000
v -0.132589 0.000000 0.070137
v -0.113578 0.020000 0.097980
v -0.111803 0.025882 0.096593
v -0.112244 0.009927 0.099506
v 0.018595 0.000000 -0.148841
v 0.018595 0.000000 0.148841
v 0.018576 0.056961 0.137515
v 0.085545 0.000000 -0.123212
v 0.085545 0.000000 0.123212
v 0.085563 0.047148 0.113825
v 0.132985 0.000000 -0.069378
v 0.132985 0.000000 0.069378
v 0.132985 0.026554 0.064108
v 0.150000 0.000000 0.000000
v 0.132985 0.026554 -0.064108
v 0.132985 0.049066 0.049066
v 0.132985 0.064108 0.026554
v 0.132985 0.069390 0.000000
v 0.132985 0.064108 -0.026554
v 0.132985 0.049066 -0.049066
v 0.085563 0.047148 -0.113825
v 0.018576 0.056961 -0.137515
v -0.052658 0.053749 -0.129762
v -0.111803 0.025882 -0.096593
v -0.132589 0.000000 -0.070137
v -0.112244 0.009928 -0.099506
v -0.145584 0.000000 0.036116
v -0.145584 0.000000 -0.036116
v -0.133399 0.020000 -0.068586
v -0.113578 0.020000 -0.097980
v -0.150000 0.000000 0.000000
v -0.145785 0.020000 -0.035288
v -0.149994 0.020000 -0.000000
v -0.133399 0.020000 0.068586
v -0.145785 0.020000 0.035288
v -0.947131 0.000000 0.140368
v -0.947131 0.000000 -0.140368
v -0.888197 0.000000 -0.100000
v -0.947139 0.053720 -0.129691
v -0.888197 0.000000 0.100000
v -0.867411 0.000000 -0.070137
v -0.886422 0.020000 -0.097980
v -0.888197 0.025882 -0.096593
v -0.887756 0.009928 -0.099506
v -1.018380 0.000000 0.148867
v -1.018380 0.000000 -0.148867
v -1.018361 0.056971 -0.137540
v -1.085367 0.000000 0.123336
v -1.085367 0.000000 -0.123336
v -1.085384 0.047195 -0.113939
v -1.132884 0.000000 0.069571
v -1.132884 0.000000 -0.069571
v -1.132884 0.026628 -0.064286
v -1.150000 0.000000 0.000000
v -1.132884 0.026628 0.064286
v -1.132884 0.049202 -0.049202
v -1.132884 0.064286 -0.026628
v -1.132884 0.069582 0.000000
v -1.132884 0.064286 0.026628
v -1.132884 0.049202 0.049202
v -1.085384 0.047195 0.113939
v -1.018361 0.056971 0.137540
v -0.947139 0.053720 0.129691
v -0.888197 0.025882 0.096593
v -0.867411 0.000000 0.070137
v -0.887756 0.009927 0.099506
v -0.854416 0.000000 -0.036116
v -0.854416 0.000000 0.036116
v -0.866602 0.020000 0.068586
v -0.886422 0.020000 0.097980
v -0.850000 0.000000 -0.000000
v -0.854215 0.020000 0.035288
v -0.850006 0.020000 0.000000
v -0.866602 0.020000 -0.068586
v -0.854215 0.020000 -0.035288
v -1.085384 0.087205 -0.087205
v -1.085384 0.113939 -0.047195
v -1.085384 0.123327 0.000000
v -1.085384 0.113939 0.047195
v -1.085384 0.087205 0.087205
v -0.888197 0.050000 -0.086603
v -0.947139 0.099262 -0.099262
v -0.888197 0.070711 -0.070711
v -0.111803 0.050000 -0.086603
v -0.947139 0.129691 -0.053720
v -0.888197 0.086603 -0.050000
v -0.111803 0.070711 -0.070711
v -0.888197 0.096593 -0.025882
v -0.111803 0.086603 -0.050000
v -0.947139 0.140377 0.000000
v -0.888197 0.100000 0.000000
v -0.111803 0.096593 -0.025882
v -0.947139 0.129691 0.053720
v -0.888197 0.096593 0.025882
v -0.111803 0.100000 0.000000
v -0.888197 0.086603 0.050000
v -0.111803 0.096593 0.025882
v -0.947139 0.099262 0.099262
v -0.888197 0.070711 0.070711
v -0.111803 0.086603 0.050000
v -0.888197 0.050000 0.086603
v -0.111803 0.070711 0.070711
v -0.111803 0.050000 0.086603
v -1.018361 0.105268 0.105268
v -1.018361 0.137540 0.056971
v -1.018361 0.148872 0.000000
v -1.018361 0.137540 -0.056971
v -1.018361 0.105268 -0.105268
v 0.085563 0.087118 0.087118
v 0.085563 0.113825 0.047148
v 0.085563 0.123203 0.000000
v 0.085563 0.113825 -0.047148
v 0.085563 0.087118 -0.087118
v 0.018576 0.105250 0.105250
v 0.018576 0.137515 0.056961
v 0.018576 0.148845 0.000000
v 0.018576 0.137515 -0.056961
v 0.018576 0.105250 -0.105250
v -0.052658 0.099316 0.099316
v -0.052658 0.129762 0.053749
v -0.052658 0.140453 0.000000
v -0.052658 0.129762 -0.053749
v -0.052658 0.099316 -0.099316
vt 0.7536 0.6412
vt 0.7837 0.8875
vt 0.7275 0.8584
vt 0.4993 0.3207
vt 0.4087 0.3220
vt 0.4789 0.2626
vt 0.7061 0.6830
vt 0.7061 0.8344
vt 0.4224 0.3395
vt 0.3820 0.3617
vt 0.4296 0.3432
vt 0.4167 0.3313
vt 0.8152 0.6262
vt 0.8471 0.8872
vt 0.5649 0.3124
vt 0.5706 0.2485
vt 0.8766 0.6415
vt 0.9031 0.8575
vt 0.6286 0.3266
vt 0.6536 0.2808
vt 0.9240 0.6836
vt 0.9389 0.8053
vt 0.6862 0.3635
vt 0.7088 0.3446
vt 0.9464 0.7426
vt 0.7363 0.4231
vt 0.6983 0.4931
vt 0.7261 0.5101
vt 0.6724 0.3852
vt 0.6657 0.4075
vt 0.6649 0.4297
vt 0.6696 0.4515
vt 0.6803 0.4729
vt 0.6419 0.5404
vt 0.6722 0.5877
vt 0.5776 0.5618
vt 0.5862 0.6257
vt 0.5125 0.5602
vt 0.4973 0.6158
vt 0.4454 0.5467
vt 0.4279 0.5685
vt 0.6911 0.7114
vt 0.4340 0.5594
vt 0.3993 0.5367
vt 0.6911 0.8060
vt 0.6833 0.7426
vt 0.4175 0.5219
vt 0.3790 0.4969
vt 0.4398 0.5504
vt 0.6833 0.7748
vt 0.4004 0.4878
vt 0.3685 0.4535
vt 0.3919 0.4507
vt 0.3685 0.4075
vt 0.4036 0.3741
vt 0.3930 0.4121
vt 0.9297 0.4946
vt 0.8996 0.2485
vt 0.9556 0.2776
vt 0.2374 0.5535
vt 0.3279 0.5522
vt 0.2578 0.6115
vt 0.9770 0.4529
vt 0.9770 0.3015
vt 0.3141 0.5347
vt 0.3546 0.5125
vt 0.3070 0.5311
vt 0.3198 0.5429
vt 0.8681 0.5097
vt 0.8362 0.2487
vt 0.1718 0.5619
vt 0.1662 0.6258
vt 0.8066 0.4945
vt 0.7802 0.2782
vt 0.1081 0.5477
vt 0.0832 0.5935
vt 0.7592 0.4525
vt 0.7443 0.3305
vt 0.0505 0.5109
vt 0.0279 0.5298
vt 0.7367 0.3933
vt 0.0002 0.4511
vt 0.0384 0.3810
vt 0.0106 0.3639
vt 0.0643 0.4891
vt 0.0710 0.4668
vt 0.0718 0.4446
vt 0.0671 0.4226
vt 0.0564 0.4012
vt 0.0948 0.3338
vt 0.0646 0.2864
vt 0.1591 0.3124
vt 0.1506 0.2485
vt 0.2242 0.3141
vt 0.2395 0.2585
vt 0.2911 0.3275
vt 0.3086 0.3057
vt 0.9921 0.4245
vt 0.3025 0.3149
vt 0.3373 0.3375
vt 0.9921 0.3300
vt 0.9998 0.3933
vt 0.3191 0.3524
vt 0.3576 0.3774
vt 0.2967 0.3238
vt 0.9998 0.3611
vt 0.3361 0.3864
vt 0.3681 0.4208
vt 0.3446 0.4235
vt 0.3681 0.4668
vt 0.3329 0.5001
vt 0.3436 0.4621
vt 0.1205 0.5085
vt 0.1255 0.4735
vt 0.1255 0.4406
vt 0.1211 0.4078
vt 0.1117 0.3731
vt 0.2915 0.5097
vt 0.6680 0.2364
vt 0.0002 0.2364
vt 0.0002 0.2140
vt 0.6664 0.2480
vt 0.0035 0.2481
vt 0.2261 0.5079
vt 0.2806 0.4893
vt 0.6680 0.2140
vt 0.0002 0.1915
vt 0.2195 0.4693
vt 0.2729 0.4694
vt 0.6680 0.1915
vt 0.0002 0.1691
vt 0.2683 0.4496
vt 0.6680 0.1691
vt 0.0002 0.1466
vt 0.2159 0.4335
vt 0.2655 0.4300
vt 0.6680 0.1466
vt 0.0002 0.1241
vt 0.2150 0.3975
vt 0.2651 0.4104
vt 0.6680 0.1241
vt 0.0002 0.1017
vt 0.2669 0.3905
vt 0.6680 0.1017
vt 0.0002 0.0792
vt 0.2170 0.3591
vt 0.2714 0.3701
vt 0.6680 0.0792
vt 0.0002 0.0568
vt 0.2790 0.3493
vt 0.6680 0.0568
vt 0.0002 0.0343
vt 0.6680 0.0343
vt 0.0002 0.0119
vt 0.6680 0.0119
vt 0.0018 0.0002
vt 0.1646 0.3603
vt 0.1686 0.4002
vt 0.1714 0.4370
vt 0.1731 0.4739
vt 0.1735 0.5139
vt 0.6162 0.3658
vt 0.6112 0.4007
vt 0.6112 0.4336
vt 0.6155 0.4664
vt 0.6250 0.5011
vt 0.5632 0.3603
vt 0.5636 0.4004
vt 0.5653 0.4372
vt 0.5681 0.4740
vt 0.5721 0.5139
vt 0.5106 0.3663
vt 0.5171 0.4049
vt 0.5207 0.4407
vt 0.5216 0.4768
vt 0.5197 0.5152
vt 0.4451 0.3646
vt 0.4560 0.3849
vt 0.4682 0.4246
vt 0.4636 0.4049
vt 0.4710 0.4442
vt 0.4697 0.4838
vt 0.4715 0.4638
vt 0.4651 0.5041
vt 0.4575 0.5249
vt 0.6647 0.0002
vt 0.0177 0.6521
vt 0.0002 0.6262
vt 0.6829 0.6262
vt 0.0287 0.6816
vt 0.0324 0.7127
vt 0.6654 0.6521
vt 0.6654 0.7733
vt 0.6829 0.7993
vt 0.0002 0.7993
vt 0.6507 0.7127
vt 0.0177 0.7733
vt 0.6545 0.7439
vt 0.0287 0.7439
vt 0.6545 0.6816
vn 0.0000 -1.0000 0.0000
vn -0.5571 0.1620 0.8145
vn -0.8207 -0.0151 0.5712
vn -0.5254 0.1111 0.8436
vn 0.8776 0.0626 0.4752
vn -0.7559 -0.0010 0.6546
vn -0.1148 0.1937 0.9743
vn 0.3515 0.1827 0.9182
vn 0.7439 0.1301 0.6555
vn 0.7438 0.1302 0.6556
vn 0.9701 0.0472 0.2379
vn 0.9701 0.0472 -0.2379
vn 0.9701 0.1348 0.2017
vn 0.9701 0.2017 0.1348
vn 0.9701 0.2379 0.0473
vn 0.9701 0.2379 -0.0473
vn 0.9701 0.2017 -0.1348
vn 0.9701 0.1348 -0.2017
vn 0.7439 0.1302 -0.6555
vn 0.7438 0.1301 -0.6556
vn 0.3515 0.1827 -0.9182
vn -0.1148 0.1937 -0.9743
vn -0.5612 0.1080 -0.8206
vn -0.5402 0.1641 -0.8254
vn -0.8207 -0.0080 -0.5713
vn 0.8776 0.0626 -0.4753
vn -0.9341 -0.0101 -0.3568
vn -0.8184 -0.0214 -0.5742
vn -0.8291 0.0098 -0.5591
vn -0.9926 -0.0050 -0.1214
vn -0.9372 0.0050 -0.3486
vn -0.9926 0.0003 0.1214
vn -0.9930 0.0003 -0.1184
vn -0.9341 -0.0101 0.3568
vn -0.9372 0.0050 0.3486
vn -0.9929 -0.0051 0.1184
vn -0.8291 0.0098 0.5591
vn 0.5577 0.1619 -0.8141
vn 0.8207 -0.0151 -0.5712
vn 0.5260 0.1110 -0.8432
vn -0.8776 0.0626 -0.4753
vn 0.7559 -0.0010 -0.6547
vn 0.1162 0.1937 -0.9742
vn 0.1162 0.1936 -0.9742
vn -0.3501 0.1828 -0.9187
vn -0.3502 0.1828 -0.9187
vn -0.7429 0.1303 -0.6566
vn -0.7429 0.1305 -0.6566
vn -0.9700 0.0474 -0.2386
vn -0.9700 0.0474 0.2386
vn -0.9700 0.1352 -0.2023
vn -0.9700 0.2023 -0.1352
vn -0.9700 0.2386 -0.0475
vn -0.9700 0.2386 0.0475
vn -0.9700 0.2023 0.1352
vn -0.9700 0.1352 0.2023
vn -0.7429 0.1305 0.6566
vn -0.7429 0.1303 0.6566
vn -0.3501 0.1828 0.9187
vn -0.3502 0.1828 0.9187
vn 0.1162 0.1936 0.9742
vn 0.1162 0.1937 0.9742
vn 0.5618 0.1080 0.8202
vn 0.5408 0.1641 0.8250
vn 0.8207 -0.0080 0.5713
vn -0.8776 0.0626 0.4752
vn 0.9341 -0.0101 0.3568
vn 0.8184 -0.0214 0.5742
vn 0.8291 0.0098 0.5591
vn 0.9926 -0.0050 0.1214
vn 0.9372 0.0050 0.3486
vn 0.9926 0.0003 -0.1214
vn 0.9930 0.0003 0.1184
vn 0.9341 -0.0101 -0.3568
vn 0.9372 0.0050 -0.3486
vn 0.9929 -0.0051 -0.1184
vn 0.8291 0.0098 -0.5591
vn -0.7429 0.3719 -0.5566
vn -0.7429 0.5566 -0.3719
vn -0.7429 0.6566 -0.1306
vn -0.7429 0.6566 0.1306
vn -0.7429 0.5566 0.3719
vn -0.7429 0.3719 0.5566
vn 0.5732 0.3136 -0.7570
vn 0.0000 0.3827 -0.9239
vn 0.0000 0.2295 -0.9733
vn -0.1877 0.1714 -0.9672
vn 0.5618 0.5036 -0.6563
vn 0.0000 0.6088 -0.7934
vn 0.5408 0.4673 -0.6994
vn 0.5260 0.6748 -0.5178
vn 0.0000 0.7934 -0.6088
vn 0.5577 0.6902 -0.4612
vn 0.5732 0.7570 -0.3136
vn 0.0000 0.9239 -0.3827
vn 0.5618 0.8202 -0.1080
vn 0.0000 0.9914 -0.1305
vn 0.5408 0.8250 -0.1641
vn 0.5260 0.8432 0.1110
vn 0.0000 0.9914 0.1305
vn 0.5577 0.8141 0.1619
vn 0.5732 0.7570 0.3136
vn 0.0000 0.9239 0.3827
vn 0.5618 0.6563 0.5036
vn 0.0000 0.7934 0.6088
vn 0.5408 0.6994 0.4673
vn 0.5260 0.5178 0.6748
vn 0.0000 0.6088 0.7934
vn 0.5577 0.4612 0.6902
vn 0.5732 0.3136 0.7570
vn 0.0000 0.3827 0.9239
vn 0.0000 0.2295 0.9733
vn -0.1877 0.1714 0.9672
vn 0.1162 0.5518 0.8258
vn 0.1162 0.8258 0.5518
vn 0.1162 0.9741 0.1938
vn 0.1162 0.9741 -0.1938
vn 0.1162 0.8258 -0.5518
vn 0.1162 0.5518 -0.8258
vn -0.3502 0.5204 0.7788
vn -0.3502 0.7788 0.5204
vn -0.3502 0.9187 0.1827
vn -0.3502 0.9187 -0.1827
vn -0.3502 0.7788 -0.5204
vn -0.3502 0.5204 -0.7788
vn 0.7438 0.3713 0.5557
vn 0.7438 0.5557 0.3713
vn 0.7438 0.6555 0.1304
vn 0.7438 0.6555 -0.1304
vn 0.7438 0.5557 -0.3713
vn 0.7438 0.3713 -0.5557
vn 0.3515 0.5201 0.7784
vn 0.3515 0.7784 0.5201
vn 0.3515 0.9182 0.1826
vn 0.3515 0.9182 -0.1826
vn 0.3515 0.7784 -0.5201
vn 0.3515 0.5201 -0.7784
vn -0.1148 0.5519 0.8260
vn -0.1148 0.8260 0.5519
vn -0.1148 0.9743 0.1938
vn -0.1148 0.9743 -0.1938
vn -0.1148 0.8260 -0.5519
vn -0.1148 0.5519 -0.8260
vn -0.5402 0.4675 0.6997
vn -0.5726 0.3137 0.7574
vn -0.5571 0.6905 0.4614
vn -0.5612 0.5038 0.6566
vn -0.5402 0.8254 0.1642
vn -0.5254 0.6750 0.5180
vn -0.5726 0.7574 0.3137
vn -0.5571 0.8145 -0.1620
vn -0.5612 0.8206 0.1080
vn -0.5402 0.6997 -0.4675
vn -0.5254 0.8436 -0.1111
vn -0.5726 0.7574 -0.3137
vn -0.5571 0.4614 -0.6905
vn -0.5612 0.6566 -0.5038
vn -0.5254 0.5180 -0.6750
vn -0.5726 0.3137 -0.7574
vn 0.1877 0.1714 0.9672
vn 0.1877 0.1714 -0.9672
usemtl None
s off
f 1/1/1 2/2/1 3/3/1
f 4/4/2 3/5/2 2/6/2
f 5/7/1 1/1/1 3/3/1
f 6/8/1 5/7/1 3/3/1
f 7/9/3 6/10/3 3/5/3
f 8/11/4 3/5/4 4/4/4
f 9/12/5 3/5/5 8/11/5
f 7/9/6 3/5/6 9/12/6
f 10/13/1 11/14/1 2/2/1
f 12/15/7 2/6/7 11/16/7
f 1/1/1 10/13/1 2/2/1
f 4/4/7 2/6/7 12/15/7
f 13/17/1 14/18/1 11/14/1
f 15/19/8 11/16/8 14/20/8
f 10/13/1 13/17/1 11/14/1
f 12/15/8 11/16/8 15/19/8
f 16/21/1 17/22/1 14/18/1
f 18/23/9 14/20/9 17/24/9
f 13/17/1 16/21/1 14/18/1
f 15/19/10 14/20/10 18/23/10
f 16/21/1 19/25/1 17/22/1
f 18/23/11 17/24/11 19/26/11
f 20/27/12 19/26/12 16/28/12
f 21/29/13 18/23/13 19/26/13
f 22/30/14 21/29/14 19/26/14
f 23/31/15 22/30/15 19/26/15
f 24/32/16 23/31/16 19/26/16
f 25/33/17 24/32/17 19/26/17
f 20/27/18 25/33/18 19/26/18
f 26/34/19 16/28/19 13/35/19
f 26/34/20 20/27/20 16/28/20
f 27/36/21 13/35/21 10/37/21
f 27/36/21 26/34/21 13/35/21
f 28/38/22 10/37/22 1/39/22
f 28/38/22 27/36/22 10/37/22
f 29/40/23 1/39/23 5/41/23
f 29/40/24 28/38/24 1/39/24
f 6/8/1 30/42/1 5/7/1
f 31/43/25 5/41/25 30/44/25
f 31/43/26 29/40/26 5/41/26
f 32/45/1 33/46/1 30/42/1
f 34/47/27 30/44/27 33/48/27
f 6/8/1 32/45/1 30/42/1
f 31/43/28 30/44/28 35/49/28
f 34/47/29 35/49/29 30/44/29
f 32/45/1 36/50/1 33/46/1
f 37/51/30 33/48/30 36/52/30
f 34/47/31 33/48/31 37/51/31
f 38/53/32 36/52/32 32/54/32
f 37/51/33 36/52/33 38/53/33
f 39/55/34 32/54/34 6/10/34
f 40/56/35 32/54/35 39/55/35
f 38/53/36 32/54/36 40/56/36
f 39/55/37 6/10/37 7/9/37
f 41/57/1 42/58/1 43/59/1
f 44/60/38 43/61/38 42/62/38
f 45/63/1 41/57/1 43/59/1
f 46/64/1 45/63/1 43/59/1
f 47/65/39 46/66/39 43/61/39
f 44/60/40 48/67/40 43/61/40
f 49/68/41 43/61/41 48/67/41
f 49/68/42 47/65/42 43/61/42
f 50/69/1 51/70/1 42/58/1
f 52/71/43 42/62/43 51/72/43
f 41/57/1 50/69/1 42/58/1
f 52/71/44 44/60/44 42/62/44
f 53/73/1 54/74/1 51/70/1
f 55/75/45 51/72/45 54/76/45
f 50/69/1 53/73/1 51/70/1
f 55/75/46 52/71/46 51/72/46
f 56/77/1 57/78/1 54/74/1
f 58/79/47 54/76/47 57/80/47
f 53/73/1 56/77/1 54/74/1
f 55/75/48 54/76/48 58/79/48
f 56/77/1 59/81/1 57/78/1
f 58/79/49 57/80/49 59/82/49
f 60/83/50 59/82/50 56/84/50
f 61/85/51 58/79/51 59/82/51
f 62/86/52 61/85/52 59/82/52
f 63/87/53 62/86/53 59/82/53
f 64/88/54 63/87/54 59/82/54
f 65/89/55 64/88/55 59/82/55
f 60/83/56 65/89/56 59/82/56
f 66/90/57 56/84/57 53/91/57
f 66/90/58 60/83/58 56/84/58
f 67/92/59 53/91/59 50/93/59
f 66/90/60 53/91/60 67/92/60
f 68/94/61 50/93/61 41/95/61
f 67/92/62 50/93/62 68/94/62
f 69/96/63 41/95/63 45/97/63
f 68/94/64 41/95/64 69/96/64
f 46/64/1 70/98/1 45/63/1
f 71/99/65 45/97/65 70/100/65
f 71/99/66 69/96/66 45/97/66
f 72/101/1 73/102/1 70/98/1
f 74/103/67 70/100/67 73/104/67
f 46/64/1 72/101/1 70/98/1
f 71/99/68 70/100/68 75/105/68
f 74/103/69 75/105/69 70/100/69
f 72/101/1 76/106/1 73/102/1
f 77/107/70 73/104/70 76/108/70
f 74/103/71 73/104/71 77/107/71
f 78/109/72 76/108/72 72/110/72
f 77/107/73 76/108/73 78/109/73
f 79/111/74 72/110/74 46/66/74
f 80/112/75 72/110/75 79/111/75
f 78/109/76 72/110/76 80/112/76
f 79/111/77 46/66/77 47/65/77
f 55/75/78 58/79/78 61/85/78
f 81/113/79 61/85/79 62/86/79
f 55/75/78 61/85/78 81/113/78
f 82/114/80 62/86/80 63/87/80
f 81/113/79 62/86/79 82/114/79
f 83/115/81 63/87/81 64/88/81
f 82/114/80 63/87/80 83/115/80
f 84/116/82 64/88/82 65/89/82
f 83/115/81 64/88/81 84/116/81
f 85/117/83 65/89/83 60/83/83
f 84/116/82 65/89/82 85/117/82
f 85/117/83 60/83/83 66/90/83
f 44/60/84 86/118/84 48/67/84
f 29/119/85 48/120/85 86/121/85
f 35/122/86 48/120/86 29/119/86
f 35/122/86 47/123/86 48/120/86
f 49/68/87 48/67/87 47/65/87
f 87/124/88 88/125/88 86/118/88
f 89/126/89 86/121/89 88/127/89
f 44/60/90 87/124/90 86/118/90
f 29/119/85 86/121/85 89/126/85
f 90/128/91 91/129/91 88/125/91
f 92/130/92 88/127/92 91/131/92
f 87/124/93 90/128/93 88/125/93
f 89/126/89 88/127/89 92/130/89
f 90/128/94 93/132/94 91/129/94
f 94/133/95 91/131/95 93/134/95
f 92/130/92 91/131/92 94/133/92
f 95/135/96 96/136/96 93/132/96
f 97/137/97 93/134/97 96/138/97
f 90/128/98 95/135/98 93/132/98
f 94/133/95 93/134/95 97/137/95
f 98/139/99 99/140/99 96/136/99
f 100/141/100 96/138/100 99/142/100
f 95/135/101 98/139/101 96/136/101
f 97/137/97 96/138/97 100/141/97
f 98/139/102 101/143/102 99/140/102
f 102/144/103 99/142/103 101/145/103
f 100/141/100 99/142/100 102/144/100
f 103/146/104 104/147/104 101/143/104
f 105/148/105 101/145/105 104/149/105
f 98/139/106 103/146/106 101/143/106
f 102/144/103 101/145/103 105/148/103
f 68/94/107 106/150/107 104/147/107
f 107/151/108 104/149/108 106/152/108
f 103/146/109 68/94/109 104/147/109
f 105/148/105 104/149/105 107/151/105
f 68/94/110 69/96/110 106/150/110
f 108/153/111 106/152/111 69/154/111
f 107/151/108 106/152/108 108/153/108
f 108/153/111 69/154/111 8/155/111
f 75/156/112 8/155/112 69/154/112
f 71/99/113 75/105/113 69/96/113
f 67/92/114 68/94/114 103/146/114
f 109/157/115 103/146/115 98/139/115
f 109/157/114 67/92/114 103/146/114
f 110/158/116 98/139/116 95/135/116
f 110/158/115 109/157/115 98/139/115
f 111/159/117 95/135/117 90/128/117
f 111/159/116 110/158/116 95/135/116
f 112/160/118 90/128/118 87/124/118
f 112/160/117 111/159/117 90/128/117
f 113/161/119 87/124/119 44/60/119
f 113/161/118 112/160/118 87/124/118
f 52/71/119 113/161/119 44/60/119
f 66/90/120 67/92/120 109/157/120
f 85/117/121 109/157/121 110/158/121
f 85/117/120 66/90/120 109/157/120
f 84/116/122 110/158/122 111/159/122
f 84/116/121 85/117/121 110/158/121
f 83/115/123 111/159/123 112/160/123
f 83/115/122 84/116/122 111/159/122
f 82/114/124 112/160/124 113/161/124
f 82/114/123 83/115/123 112/160/123
f 81/113/125 113/161/125 52/71/125
f 81/113/124 82/114/124 113/161/124
f 55/75/125 81/113/125 52/71/125
f 15/19/126 18/23/126 21/29/126
f 114/162/127 21/29/127 22/30/127
f 114/162/126 15/19/126 21/29/126
f 115/163/128 22/30/128 23/31/128
f 115/163/127 114/162/127 22/30/127
f 116/164/129 23/31/129 24/32/129
f 116/164/128 115/163/128 23/31/128
f 117/165/130 24/32/130 25/33/130
f 117/165/129 116/164/129 24/32/129
f 118/166/131 25/33/131 20/27/131
f 118/166/130 117/165/130 25/33/130
f 26/34/131 118/166/131 20/27/131
f 12/15/132 15/19/132 114/162/132
f 119/167/133 114/162/133 115/163/133
f 119/167/132 12/15/132 114/162/132
f 120/168/134 115/163/134 116/164/134
f 120/168/133 119/167/133 115/163/133
f 121/169/135 116/164/135 117/165/135
f 121/169/134 120/168/134 116/164/134
f 122/170/136 117/165/136 118/166/136
f 122/170/135 121/169/135 117/165/135
f 123/171/137 118/166/137 26/34/137
f 123/171/136 122/170/136 118/166/136
f 27/36/137 123/171/137 26/34/137
f 4/4/138 12/15/138 119/167/138
f 124/172/139 119/167/139 120/168/139
f 124/172/138 4/4/138 119/167/138
f 125/173/140 120/168/140 121/169/140
f 125/173/139 124/172/139 120/168/139
f 126/174/141 121/169/141 122/170/141
f 126/174/140 125/173/140 121/169/140
f 127/175/142 122/170/142 123/171/142
f 127/175/141 126/174/141 122/170/141
f 128/176/143 123/171/143 27/36/143
f 128/176/142 127/175/142 123/171/142
f 28/38/143 128/176/143 27/36/143
f 108/177/144 4/4/144 124/172/144
f 108/177/145 8/11/145 4/4/145
f 107/178/146 124/172/146 125/173/146
f 107/178/147 108/177/147 124/172/147
f 102/179/148 125/173/148 126/174/148
f 105/180/149 107/178/149 125/173/149
f 102/179/150 105/180/150 125/173/150
f 100/181/151 126/174/151 127/175/151
f 100/181/152 102/179/152 126/174/152
f 94/182/153 127/175/153 128/176/153
f 97/183/154 100/181/154 127/175/154
f 94/182/155 97/183/155 127/175/155
f 92/184/156 128/176/156 28/38/156
f 92/184/157 94/182/157 128/176/157
f 89/185/158 92/184/158 28/38/158
f 29/40/159 89/185/159 28/38/159
f 7/9/160 9/12/160 8/11/160
f 75/156/112 7/186/112 8/155/112
f 31/43/161 35/49/161 29/40/161
f 79/187/1 47/188/1 35/189/1
f 80/190/1 79/187/1 35/189/1
f 78/191/1 80/190/1 35/189/1
f 34/192/1 78/191/1 35/189/1
f 39/193/1 7/194/1 75/195/1
f 38/196/1 75/195/1 74/197/1
f 40/198/1 39/193/1 75/195/1
f 38/196/1 40/198/1 75/195/1
f 38/196/1 77/199/1 78/191/1
f 37/200/1 38/196/1 78/191/1
f 34/192/1 37/200/1 78/191/1
f 38/196/1 74/197/1 77/199/1
