solid PRT0003
  facet normal 0.000000e+00 1.000000e+00 0.000000e+00
    outer loop
      vertex 2.377669e-01 1.500000e-01 -7.724458e-02
      vertex -2.377669e-01 1.500000e-01 -7.724458e-02
      vertex -2.500000e-01 1.500000e-01 3.061617e-17
    endloop
  endfacet
  facet normal -9.876907e-01 0.000000e+00 -1.564194e-01
    outer loop
      vertex -2.500000e-01 -1.500000e-01 3.061617e-17
      vertex -2.500000e-01 1.500000e-01 3.061617e-17
      vertex -2.377669e-01 1.500000e-01 -7.724458e-02
    endloop
  endfacet
  facet normal 0.000000e+00 1.000000e+00 0.000000e+00
    outer loop
      vertex 2.500000e-01 1.500000e-01 -3.061617e-17
      vertex 2.377669e-01 1.500000e-01 -7.724458e-02
      vertex -2.500000e-01 1.500000e-01 3.061617e-17
    endloop
  endfacet
  facet normal 0.000000e+00 1.000000e+00 0.000000e+00
    outer loop
      vertex -2.377669e-01 1.500000e-01 7.724458e-02
      vertex 2.500000e-01 1.500000e-01 -3.061617e-17
      vertex -2.500000e-01 1.500000e-01 3.061617e-17
    endloop
  endfacet
  facet normal -9.876907e-01 0.000000e+00 1.564194e-01
    outer loop
      vertex -2.377669e-01 -1.500000e-01 7.724458e-02
      vertex -2.377669e-01 1.500000e-01 7.724458e-02
      vertex -2.500000e-01 1.500000e-01 3.061617e-17
    endloop
  endfacet
  facet normal -9.876907e-01 0.000000e+00 1.564194e-01
    outer loop
      vertex -2.377669e-01 -1.500000e-01 7.724458e-02
      vertex -2.500000e-01 1.500000e-01 3.061617e-17
      vertex -2.500000e-01 -1.500000e-01 3.061617e-17
    endloop
  endfacet
  facet normal 0.000000e+00 1.000000e+00 0.000000e+00
    outer loop
      vertex 2.022612e-01 1.500000e-01 -1.469348e-01
      vertex -2.022612e-01 1.500000e-01 -1.469348e-01
      vertex -2.377669e-01 1.500000e-01 -7.724458e-02
    endloop
  endfacet
  facet normal -8.910231e-01 0.000000e+00 -4.539579e-01
    outer loop
      vertex -2.377669e-01 -1.500000e-01 -7.724458e-02
      vertex -2.377669e-01 1.500000e-01 -7.724458e-02
      vertex -2.022612e-01 1.500000e-01 -1.469348e-01
    endloop
  endfacet
  facet normal 0.000000e+00 1.000000e+00 0.000000e+00
    outer loop
      vertex 2.377669e-01 1.500000e-01 -7.724458e-02
      vertex 2.022612e-01 1.500000e-01 -1.469348e-01
      vertex -2.377669e-01 1.500000e-01 -7.724458e-02
    endloop
  endfacet
  facet normal -9.876907e-01 0.000000e+00 -1.564194e-01
    outer loop
      vertex -2.377669e-01 -1.500000e-01 -7.724458e-02
      vertex -2.500000e-01 -1.500000e-01 3.061617e-17
      vertex -2.377669e-01 1.500000e-01 -7.724458e-02
    endloop
  endfacet
  facet normal 0.000000e+00 1.000000e+00 0.000000e+00
    outer loop
      vertex 1.469546e-01 1.500000e-01 -2.022457e-01
      vertex -1.469546e-01 1.500000e-01 -2.022457e-01
      vertex -2.022612e-01 1.500000e-01 -1.469348e-01
    endloop
  endfacet
  facet normal -7.071346e-01 0.000000e+00 -7.070790e-01
    outer loop
      vertex -2.022612e-01 -1.500000e-01 -1.469348e-01
      vertex -2.022612e-01 1.500000e-01 -1.469348e-01
      vertex -1.469546e-01 1.500000e-01 -2.022457e-01
    endloop
  endfacet
  facet normal 0.000000e+00 1.000000e+00 0.000000e+00
    outer loop
      vertex 2.022612e-01 1.500000e-01 -1.469348e-01
      vertex 1.469546e-01 1.500000e-01 -2.022457e-01
      vertex -2.022612e-01 1.500000e-01 -1.469348e-01
    endloop
  endfacet
  facet normal -8.910231e-01 0.000000e+00 -4.539579e-01
    outer loop
      vertex -2.377669e-01 -1.500000e-01 -7.724458e-02
      vertex -2.022612e-01 1.500000e-01 -1.469348e-01
      vertex -2.022612e-01 -1.500000e-01 -1.469348e-01
    endloop
  endfacet
  facet normal 0.000000e+00 1.000000e+00 0.000000e+00
    outer loop
      vertex 7.725980e-02 1.500000e-01 -2.377595e-01
      vertex -7.725980e-02 1.500000e-01 -2.377595e-01
      vertex -1.469546e-01 1.500000e-01 -2.022457e-01
    endloop
  endfacet
  facet normal -4.540163e-01 0.000000e+00 -8.909934e-01
    outer loop
      vertex -1.469546e-01 -1.500000e-01 -2.022457e-01
      vertex -1.469546e-01 1.500000e-01 -2.022457e-01
      vertex -7.725980e-02 1.500000e-01 -2.377595e-01
    endloop
  endfacet
  facet normal 0.000000e+00 1.000000e+00 0.000000e+00
    outer loop
      vertex 1.469546e-01 1.500000e-01 -2.022457e-01
      vertex 7.725980e-02 1.500000e-01 -2.377595e-01
      vertex -1.469546e-01 1.500000e-01 -2.022457e-01
    endloop
  endfacet
  facet normal -7.071346e-01 0.000000e+00 -7.070790e-01
    outer loop
      vertex -2.022612e-01 -1.500000e-01 -1.469348e-01
      vertex -1.469546e-01 1.500000e-01 -2.022457e-01
      vertex -1.469546e-01 -1.500000e-01 -2.022457e-01
    endloop
  endfacet
  facet normal 0.000000e+00 1.000000e+00 0.000000e+00
    outer loop
      vertex 7.725980e-02 1.500000e-01 -2.377595e-01
      vertex -1.647987e-17 1.500000e-01 -2.499971e-01
      vertex -7.725980e-02 1.500000e-01 -2.377595e-01
    endloop
  endfacet
  facet normal -1.564449e-01 0.000000e+00 -9.876867e-01
    outer loop
      vertex -7.725980e-02 -1.500000e-01 -2.377595e-01
      vertex -7.725980e-02 1.500000e-01 -2.377595e-01
      vertex -1.647987e-17 1.500000e-01 -2.499971e-01
    endloop
  endfacet
  facet normal -4.540163e-01 0.000000e+00 -8.909934e-01
    outer loop
      vertex -1.469546e-01 -1.500000e-01 -2.022457e-01
      vertex -7.725980e-02 1.500000e-01 -2.377595e-01
      vertex -7.725980e-02 -1.500000e-01 -2.377595e-01
    endloop
  endfacet
  facet normal 1.564449e-01 0.000000e+00 -9.876867e-01
    outer loop
      vertex -1.647987e-17 -1.500000e-01 -2.499971e-01
      vertex -1.647987e-17 1.500000e-01 -2.499971e-01
      vertex 7.725980e-02 1.500000e-01 -2.377595e-01
    endloop
  endfacet
  facet normal -1.564449e-01 0.000000e+00 -9.876867e-01
    outer loop
      vertex -7.725980e-02 -1.500000e-01 -2.377595e-01
      vertex -1.647987e-17 1.500000e-01 -2.499971e-01
      vertex -1.647987e-17 -1.500000e-01 -2.499971e-01
    endloop
  endfacet
  facet normal 4.540163e-01 0.000000e+00 -8.909934e-01
    outer loop
      vertex 7.725980e-02 -1.500000e-01 -2.377595e-01
      vertex 7.725980e-02 1.500000e-01 -2.377595e-01
      vertex 1.469546e-01 1.500000e-01 -2.022457e-01
    endloop
  endfacet
  facet normal 1.564449e-01 0.000000e+00 -9.876867e-01
    outer loop
      vertex -1.647987e-17 -1.500000e-01 -2.499971e-01
      vertex 7.725980e-02 1.500000e-01 -2.377595e-01
      vertex 7.725980e-02 -1.500000e-01 -2.377595e-01
    endloop
  endfacet
  facet normal 7.071346e-01 0.000000e+00 -7.070790e-01
    outer loop
      vertex 1.469546e-01 -1.500000e-01 -2.022457e-01
      vertex 1.469546e-01 1.500000e-01 -2.022457e-01
      vertex 2.022612e-01 1.500000e-01 -1.469348e-01
    endloop
  endfacet
  facet normal 4.540163e-01 0.000000e+00 -8.909934e-01
    outer loop
      vertex 7.725980e-02 -1.500000e-01 -2.377595e-01
      vertex 1.469546e-01 1.500000e-01 -2.022457e-01
      vertex 1.469546e-01 -1.500000e-01 -2.022457e-01
    endloop
  endfacet
  facet normal 8.910231e-01 0.000000e+00 -4.539579e-01
    outer loop
      vertex 2.022612e-01 -1.500000e-01 -1.469348e-01
      vertex 2.022612e-01 1.500000e-01 -1.469348e-01
      vertex 2.377669e-01 1.500000e-01 -7.724458e-02
    endloop
  endfacet
  facet normal 7.071346e-01 0.000000e+00 -7.070790e-01
    outer loop
      vertex 1.469546e-01 -1.500000e-01 -2.022457e-01
      vertex 2.022612e-01 1.500000e-01 -1.469348e-01
      vertex 2.022612e-01 -1.500000e-01 -1.469348e-01
    endloop
  endfacet
  facet normal 9.876907e-01 0.000000e+00 -1.564194e-01
    outer loop
      vertex 2.377669e-01 -1.500000e-01 -7.724458e-02
      vertex 2.377669e-01 1.500000e-01 -7.724458e-02
      vertex 2.500000e-01 1.500000e-01 -3.061617e-17
    endloop
  endfacet
  facet normal 8.910231e-01 0.000000e+00 -4.539579e-01
    outer loop
      vertex 2.022612e-01 -1.500000e-01 -1.469348e-01
      vertex 2.377669e-01 1.500000e-01 -7.724458e-02
      vertex 2.377669e-01 -1.500000e-01 -7.724458e-02
    endloop
  endfacet
  facet normal 0.000000e+00 1.000000e+00 0.000000e+00
    outer loop
      vertex -2.377669e-01 1.500000e-01 7.724458e-02
      vertex 2.377669e-01 1.500000e-01 7.724458e-02
      vertex 2.500000e-01 1.500000e-01 -3.061617e-17
    endloop
  endfacet
  facet normal 9.876907e-01 0.000000e+00 1.564194e-01
    outer loop
      vertex 2.500000e-01 -1.500000e-01 -3.061617e-17
      vertex 2.500000e-01 1.500000e-01 -3.061617e-17
      vertex 2.377669e-01 1.500000e-01 7.724458e-02
    endloop
  endfacet
  facet normal 9.876907e-01 0.000000e+00 -1.564194e-01
    outer loop
      vertex 2.377669e-01 -1.500000e-01 -7.724458e-02
      vertex 2.500000e-01 1.500000e-01 -3.061617e-17
      vertex 2.500000e-01 -1.500000e-01 -3.061617e-17
    endloop
  endfacet
  facet normal 0.000000e+00 1.000000e+00 0.000000e+00
    outer loop
      vertex -2.022612e-01 1.500000e-01 1.469348e-01
      vertex 2.022612e-01 1.500000e-01 1.469348e-01
      vertex 2.377669e-01 1.500000e-01 7.724458e-02
    endloop
  endfacet
  facet normal 8.910231e-01 0.000000e+00 4.539579e-01
    outer loop
      vertex 2.377669e-01 -1.500000e-01 7.724458e-02
      vertex 2.377669e-01 1.500000e-01 7.724458e-02
      vertex 2.022612e-01 1.500000e-01 1.469348e-01
    endloop
  endfacet
  facet normal 0.000000e+00 1.000000e+00 0.000000e+00
    outer loop
      vertex -2.377669e-01 1.500000e-01 7.724458e-02
      vertex -2.022612e-01 1.500000e-01 1.469348e-01
      vertex 2.377669e-01 1.500000e-01 7.724458e-02
    endloop
  endfacet
  facet normal 9.876907e-01 0.000000e+00 1.564194e-01
    outer loop
      vertex 2.500000e-01 -1.500000e-01 -3.061617e-17
      vertex 2.377669e-01 1.500000e-01 7.724458e-02
      vertex 2.377669e-01 -1.500000e-01 7.724458e-02
    endloop
  endfacet
  facet normal 0.000000e+00 1.000000e+00 0.000000e+00
    outer loop
      vertex -1.469546e-01 1.500000e-01 2.022457e-01
      vertex 1.469546e-01 1.500000e-01 2.022457e-01
      vertex 2.022612e-01 1.500000e-01 1.469348e-01
    endloop
  endfacet
  facet normal 7.071346e-01 0.000000e+00 7.070790e-01
    outer loop
      vertex 2.022612e-01 -1.500000e-01 1.469348e-01
      vertex 2.022612e-01 1.500000e-01 1.469348e-01
      vertex 1.469546e-01 1.500000e-01 2.022457e-01
    endloop
  endfacet
  facet normal 0.000000e+00 1.000000e+00 0.000000e+00
    outer loop
      vertex -2.022612e-01 1.500000e-01 1.469348e-01
      vertex -1.469546e-01 1.500000e-01 2.022457e-01
      vertex 2.022612e-01 1.500000e-01 1.469348e-01
    endloop
  endfacet
  facet normal 8.910231e-01 0.000000e+00 4.539579e-01
    outer loop
      vertex 2.377669e-01 -1.500000e-01 7.724458e-02
      vertex 2.022612e-01 1.500000e-01 1.469348e-01
      vertex 2.022612e-01 -1.500000e-01 1.469348e-01
    endloop
  endfacet
  facet normal 0.000000e+00 1.000000e+00 0.000000e+00
    outer loop
      vertex -7.725980e-02 1.500000e-01 2.377595e-01
      vertex 7.725980e-02 1.500000e-01 2.377595e-01
      vertex 1.469546e-01 1.500000e-01 2.022457e-01
    endloop
  endfacet
  facet normal 4.538147e-01 2.979731e-02 8.905978e-01
    outer loop
      vertex 1.157829e-01 4.709985e-02 2.215724e-01
      vertex 1.469546e-01 1.500000e-01 2.022457e-01
      vertex 7.725980e-02 1.500000e-01 2.377595e-01
    endloop
  endfacet
  facet normal 0.000000e+00 1.000000e+00 0.000000e+00
    outer loop
      vertex -1.469546e-01 1.500000e-01 2.022457e-01
      vertex -7.725980e-02 1.500000e-01 2.377595e-01
      vertex 1.469546e-01 1.500000e-01 2.022457e-01
    endloop
  endfacet
  facet normal 7.071346e-01 0.000000e+00 7.070790e-01
    outer loop
      vertex 2.022612e-01 -1.500000e-01 1.469348e-01
      vertex 1.469546e-01 1.500000e-01 2.022457e-01
      vertex 1.469546e-01 -1.500000e-01 2.022457e-01
    endloop
  endfacet
  facet normal 5.447333e-01 0.000000e+00 8.386094e-01
    outer loop
      vertex 1.250043e-01 1.850218e-04 2.165038e-01
      vertex 1.469546e-01 -1.500000e-01 2.022457e-01
      vertex 1.469546e-01 1.500000e-01 2.022457e-01
    endloop
  endfacet
  facet normal 5.096155e-01 7.216495e-03 8.603720e-01
    outer loop
      vertex 1.157829e-01 4.709985e-02 2.215724e-01
      vertex 1.250043e-01 1.850218e-04 2.165038e-01
      vertex 1.469546e-01 1.500000e-01 2.022457e-01
    endloop
  endfacet
  facet normal 0.000000e+00 1.000000e+00 0.000000e+00
    outer loop
      vertex -7.725980e-02 1.500000e-01 2.377595e-01
      vertex 4.510281e-17 1.500000e-01 2.499971e-01
      vertex 7.725980e-02 1.500000e-01 2.377595e-01
    endloop
  endfacet
  facet normal 1.558826e-01 8.470267e-02 9.841372e-01
    outer loop
      vertex 4.769957e-02 1.155432e-01 2.454073e-01
      vertex 7.725980e-02 1.500000e-01 2.377595e-01
      vertex 4.510281e-17 1.500000e-01 2.499971e-01
    endloop
  endfacet
  facet normal 5.467281e-01 7.347238e-02 8.340804e-01
    outer loop
      vertex 1.039340e-01 6.943944e-02 2.273714e-01
      vertex 1.157829e-01 4.709985e-02 2.215724e-01
      vertex 7.725980e-02 1.500000e-01 2.377595e-01
    endloop
  endfacet
  facet normal 3.977491e-01 1.340094e-02 9.173963e-01
    outer loop
      vertex 8.793940e-02 8.882806e-02 2.340228e-01
      vertex 1.039340e-01 6.943944e-02 2.273714e-01
      vertex 7.725980e-02 1.500000e-01 2.377595e-01
    endloop
  endfacet
  facet normal 2.643608e-01 -1.275399e-02 9.643395e-01
    outer loop
      vertex 4.769957e-02 1.155432e-01 2.454073e-01
      vertex 8.793940e-02 8.882806e-02 2.340228e-01
      vertex 7.725980e-02 1.500000e-01 2.377595e-01
    endloop
  endfacet
  facet normal -1.564449e-01 1.157292e-04 9.876867e-01
    outer loop
      vertex 4.592425e-17 1.250000e-01 2.500000e-01
      vertex 4.510281e-17 1.500000e-01 2.499971e-01
      vertex -7.725980e-02 1.500000e-01 2.377595e-01
    endloop
  endfacet
  facet normal 9.586323e-02 1.166323e-04 9.953945e-01
    outer loop
      vertex 4.592425e-17 1.250000e-01 2.500000e-01
      vertex 4.769957e-02 1.155432e-01 2.454073e-01
      vertex 4.510281e-17 1.500000e-01 2.499971e-01
    endloop
  endfacet
  facet normal -4.538724e-01 2.516871e-02 8.907112e-01
    outer loop
      vertex -8.816104e-02 8.860803e-02 2.339394e-01
      vertex -7.725980e-02 1.500000e-01 2.377595e-01
      vertex -1.469546e-01 1.500000e-01 2.022457e-01
    endloop
  endfacet
  facet normal -1.183883e-01 1.169283e-01 9.860588e-01
    outer loop
      vertex -4.780333e-02 1.155002e-01 2.453871e-01
      vertex 4.592425e-17 1.250000e-01 2.500000e-01
      vertex -7.725980e-02 1.500000e-01 2.377595e-01
    endloop
  endfacet
  facet normal -2.648619e-01 -1.296629e-02 9.641992e-01
    outer loop
      vertex -8.816104e-02 8.860803e-02 2.339394e-01
      vertex -4.780333e-02 1.155002e-01 2.453871e-01
      vertex -7.725980e-02 1.500000e-01 2.377595e-01
    endloop
  endfacet
  facet normal -7.071346e-01 0.000000e+00 7.070790e-01
    outer loop
      vertex -1.469546e-01 -1.500000e-01 2.022457e-01
      vertex -1.469546e-01 1.500000e-01 2.022457e-01
      vertex -2.022612e-01 1.500000e-01 1.469348e-01
    endloop
  endfacet
  facet normal -5.447332e-01 0.000000e+00 8.386094e-01
    outer loop
      vertex -1.250043e-01 -1.729497e-04 2.165038e-01
      vertex -1.469546e-01 1.500000e-01 2.022457e-01
      vertex -1.469546e-01 -1.500000e-01 2.022457e-01
    endloop
  endfacet
  facet normal -4.342085e-01 4.853951e-02 8.995037e-01
    outer loop
      vertex -1.041395e-01 6.913094e-02 2.272773e-01
      vertex -8.816104e-02 8.860803e-02 2.339394e-01
      vertex -1.469546e-01 1.500000e-01 2.022457e-01
    endloop
  endfacet
  facet normal -4.734126e-01 2.192216e-02 8.805680e-01
    outer loop
      vertex -1.159193e-01 4.676350e-02 2.215011e-01
      vertex -1.041395e-01 6.913094e-02 2.272773e-01
      vertex -1.469546e-01 1.500000e-01 2.022457e-01
    endloop
  endfacet
  facet normal -5.099633e-01 7.128948e-03 8.601666e-01
    outer loop
      vertex -1.250043e-01 -1.729497e-04 2.165038e-01
      vertex -1.159193e-01 4.676350e-02 2.215011e-01
      vertex -1.469546e-01 1.500000e-01 2.022457e-01
    endloop
  endfacet
  facet normal -8.910231e-01 0.000000e+00 4.539579e-01
    outer loop
      vertex -2.022612e-01 -1.500000e-01 1.469348e-01
      vertex -2.022612e-01 1.500000e-01 1.469348e-01
      vertex -2.377669e-01 1.500000e-01 7.724458e-02
    endloop
  endfacet
  facet normal -7.071346e-01 0.000000e+00 7.070790e-01
    outer loop
      vertex -1.469546e-01 -1.500000e-01 2.022457e-01
      vertex -2.022612e-01 1.500000e-01 1.469348e-01
      vertex -2.022612e-01 -1.500000e-01 1.469348e-01
    endloop
  endfacet
  facet normal -8.910231e-01 0.000000e+00 4.539579e-01
    outer loop
      vertex -2.022612e-01 -1.500000e-01 1.469348e-01
      vertex -2.377669e-01 1.500000e-01 7.724458e-02
      vertex -2.377669e-01 -1.500000e-01 7.724458e-02
    endloop
  endfacet
  facet normal 0.000000e+00 -1.000000e+00 0.000000e+00
    outer loop
      vertex 2.377669e-01 -1.500000e-01 7.724458e-02
      vertex -2.377669e-01 -1.500000e-01 7.724458e-02
      vertex -2.500000e-01 -1.500000e-01 3.061617e-17
    endloop
  endfacet
  facet normal 0.000000e+00 -1.000000e+00 0.000000e+00
    outer loop
      vertex 2.500000e-01 -1.500000e-01 -3.061617e-17
      vertex 2.377669e-01 -1.500000e-01 7.724458e-02
      vertex -2.500000e-01 -1.500000e-01 3.061617e-17
    endloop
  endfacet
  facet normal 0.000000e+00 -1.000000e+00 0.000000e+00
    outer loop
      vertex -2.377669e-01 -1.500000e-01 -7.724458e-02
      vertex 2.500000e-01 -1.500000e-01 -3.061617e-17
      vertex -2.500000e-01 -1.500000e-01 3.061617e-17
    endloop
  endfacet
  facet normal 0.000000e+00 -1.000000e+00 0.000000e+00
    outer loop
      vertex 2.022612e-01 -1.500000e-01 1.469348e-01
      vertex -2.022612e-01 -1.500000e-01 1.469348e-01
      vertex -2.377669e-01 -1.500000e-01 7.724458e-02
    endloop
  endfacet
  facet normal 0.000000e+00 -1.000000e+00 0.000000e+00
    outer loop
      vertex 2.377669e-01 -1.500000e-01 7.724458e-02
      vertex 2.022612e-01 -1.500000e-01 1.469348e-01
      vertex -2.377669e-01 -1.500000e-01 7.724458e-02
    endloop
  endfacet
  facet normal 0.000000e+00 -1.000000e+00 0.000000e+00
    outer loop
      vertex 1.469546e-01 -1.500000e-01 2.022457e-01
      vertex -1.469546e-01 -1.500000e-01 2.022457e-01
      vertex -2.022612e-01 -1.500000e-01 1.469348e-01
    endloop
  endfacet
  facet normal 0.000000e+00 -1.000000e+00 0.000000e+00
    outer loop
      vertex 2.022612e-01 -1.500000e-01 1.469348e-01
      vertex 1.469546e-01 -1.500000e-01 2.022457e-01
      vertex -2.022612e-01 -1.500000e-01 1.469348e-01
    endloop
  endfacet
  facet normal 0.000000e+00 -1.000000e+00 0.000000e+00
    outer loop
      vertex 7.725980e-02 -1.500000e-01 2.377595e-01
      vertex -7.725980e-02 -1.500000e-01 2.377595e-01
      vertex -1.469546e-01 -1.500000e-01 2.022457e-01
    endloop
  endfacet
  facet normal -4.538148e-01 -2.978803e-02 8.905980e-01
    outer loop
      vertex -1.157942e-01 -4.707216e-02 2.215665e-01
      vertex -1.469546e-01 -1.500000e-01 2.022457e-01
      vertex -7.725980e-02 -1.500000e-01 2.377595e-01
    endloop
  endfacet
  facet normal 0.000000e+00 -1.000000e+00 0.000000e+00
    outer loop
      vertex 1.469546e-01 -1.500000e-01 2.022457e-01
      vertex 7.725980e-02 -1.500000e-01 2.377595e-01
      vertex -1.469546e-01 -1.500000e-01 2.022457e-01
    endloop
  endfacet
  facet normal -5.096402e-01 -7.210904e-03 8.603574e-01
    outer loop
      vertex -1.157942e-01 -4.707216e-02 2.215665e-01
      vertex -1.250043e-01 -1.729497e-04 2.165038e-01
      vertex -1.469546e-01 -1.500000e-01 2.022457e-01
    endloop
  endfacet
  facet normal 0.000000e+00 -1.000000e+00 0.000000e+00
    outer loop
      vertex 7.725980e-02 -1.500000e-01 2.377595e-01
      vertex 4.510281e-17 -1.500000e-01 2.499971e-01
      vertex -7.725980e-02 -1.500000e-01 2.377595e-01
    endloop
  endfacet
  facet normal -1.558830e-01 -8.467382e-02 9.841396e-01
    outer loop
      vertex -4.771384e-02 -1.155373e-01 2.454045e-01
      vertex -7.725980e-02 -1.500000e-01 2.377595e-01
      vertex 4.510281e-17 -1.500000e-01 2.499971e-01
    endloop
  endfacet
  facet normal -5.470844e-01 -7.363716e-02 8.338323e-01
    outer loop
      vertex -1.039555e-01 -6.940722e-02 2.273615e-01
      vertex -1.157942e-01 -4.707216e-02 2.215665e-01
      vertex -7.725980e-02 -1.500000e-01 2.377595e-01
    endloop
  endfacet
  facet normal -3.978926e-01 -1.344547e-02 9.173335e-01
    outer loop
      vertex -8.796342e-02 -8.880424e-02 2.340138e-01
      vertex -1.039555e-01 -6.940722e-02 2.273615e-01
      vertex -7.725980e-02 -1.500000e-01 2.377595e-01
    endloop
  endfacet
  facet normal -2.644216e-01 1.277584e-02 9.643226e-01
    outer loop
      vertex -4.771384e-02 -1.155373e-01 2.454045e-01
      vertex -8.796342e-02 -8.880424e-02 2.340138e-01
      vertex -7.725980e-02 -1.500000e-01 2.377595e-01
    endloop
  endfacet
  facet normal 1.564449e-01 -1.157292e-04 9.876867e-01
    outer loop
      vertex 4.592425e-17 -1.250000e-01 2.500000e-01
      vertex 4.510281e-17 -1.500000e-01 2.499971e-01
      vertex 7.725980e-02 -1.500000e-01 2.377595e-01
    endloop
  endfacet
  facet normal -9.589218e-02 -1.166320e-04 9.953917e-01
    outer loop
      vertex -4.771384e-02 -1.155373e-01 2.454045e-01
      vertex 4.510281e-17 -1.500000e-01 2.499971e-01
      vertex 4.592425e-17 -1.250000e-01 2.500000e-01
    endloop
  endfacet
  facet normal 4.538725e-01 -2.515921e-02 8.907114e-01
    outer loop
      vertex 8.815478e-02 -8.861428e-02 2.339417e-01
      vertex 7.725980e-02 -1.500000e-01 2.377595e-01
      vertex 1.469546e-01 -1.500000e-01 2.022457e-01
    endloop
  endfacet
  facet normal 1.184047e-01 -1.168794e-01 9.860626e-01
    outer loop
      vertex 4.781342e-02 -1.154961e-01 2.453852e-01
      vertex 4.592425e-17 -1.250000e-01 2.500000e-01
      vertex 7.725980e-02 -1.500000e-01 2.377595e-01
    endloop
  endfacet
  facet normal 2.648758e-01 1.295486e-02 9.641955e-01
    outer loop
      vertex 8.815478e-02 -8.861428e-02 2.339417e-01
      vertex 4.781342e-02 -1.154961e-01 2.453852e-01
      vertex 7.725980e-02 -1.500000e-01 2.377595e-01
    endloop
  endfacet
  facet normal 4.341908e-01 -4.855563e-02 8.995114e-01
    outer loop
      vertex 1.041325e-01 -6.914140e-02 2.272805e-01
      vertex 8.815478e-02 -8.861428e-02 2.339417e-01
      vertex 1.469546e-01 -1.500000e-01 2.022457e-01
    endloop
  endfacet
  facet normal 4.733996e-01 -2.192795e-02 8.805748e-01
    outer loop
      vertex 1.159177e-01 -4.676734e-02 2.215019e-01
      vertex 1.041325e-01 -6.914140e-02 2.272805e-01
      vertex 1.469546e-01 -1.500000e-01 2.022457e-01
    endloop
  endfacet
  facet normal 5.099630e-01 -7.128441e-03 8.601668e-01
    outer loop
      vertex 1.250043e-01 1.850218e-04 2.165038e-01
      vertex 1.159177e-01 -4.676734e-02 2.215019e-01
      vertex 1.469546e-01 -1.500000e-01 2.022457e-01
    endloop
  endfacet
  facet normal 0.000000e+00 -1.000000e+00 0.000000e+00
    outer loop
      vertex -2.377669e-01 -1.500000e-01 -7.724458e-02
      vertex 2.377669e-01 -1.500000e-01 -7.724458e-02
      vertex 2.500000e-01 -1.500000e-01 -3.061617e-17
    endloop
  endfacet
  facet normal 0.000000e+00 -1.000000e+00 0.000000e+00
    outer loop
      vertex -2.022612e-01 -1.500000e-01 -1.469348e-01
      vertex 2.022612e-01 -1.500000e-01 -1.469348e-01
      vertex 2.377669e-01 -1.500000e-01 -7.724458e-02
    endloop
  endfacet
  facet normal 0.000000e+00 -1.000000e+00 0.000000e+00
    outer loop
      vertex -2.377669e-01 -1.500000e-01 -7.724458e-02
      vertex -2.022612e-01 -1.500000e-01 -1.469348e-01
      vertex 2.377669e-01 -1.500000e-01 -7.724458e-02
    endloop
  endfacet
  facet normal 0.000000e+00 -1.000000e+00 0.000000e+00
    outer loop
      vertex -1.469546e-01 -1.500000e-01 -2.022457e-01
      vertex 1.469546e-01 -1.500000e-01 -2.022457e-01
      vertex 2.022612e-01 -1.500000e-01 -1.469348e-01
    endloop
  endfacet
  facet normal 0.000000e+00 -1.000000e+00 0.000000e+00
    outer loop
      vertex -2.022612e-01 -1.500000e-01 -1.469348e-01
      vertex -1.469546e-01 -1.500000e-01 -2.022457e-01
      vertex 2.022612e-01 -1.500000e-01 -1.469348e-01
    endloop
  endfacet
  facet normal 0.000000e+00 -1.000000e+00 0.000000e+00
    outer loop
      vertex -7.725980e-02 -1.500000e-01 -2.377595e-01
      vertex 7.725980e-02 -1.500000e-01 -2.377595e-01
      vertex 1.469546e-01 -1.500000e-01 -2.022457e-01
    endloop
  endfacet
  facet normal 0.000000e+00 -1.000000e+00 0.000000e+00
    outer loop
      vertex -1.469546e-01 -1.500000e-01 -2.022457e-01
      vertex -7.725980e-02 -1.500000e-01 -2.377595e-01
      vertex 1.469546e-01 -1.500000e-01 -2.022457e-01
    endloop
  endfacet
  facet normal 0.000000e+00 -1.000000e+00 0.000000e+00
    outer loop
      vertex -7.725980e-02 -1.500000e-01 -2.377595e-01
      vertex -1.647987e-17 -1.500000e-01 -2.499971e-01
      vertex 7.725980e-02 -1.500000e-01 -2.377595e-01
    endloop
  endfacet
  facet normal 1.949574e-01 -9.808117e-01 1.566428e-16
    outer loop
      vertex -1.530808e-17 -1.250000e-01 5.000000e-01
      vertex 4.592425e-17 -1.250000e-01 2.500000e-01
      vertex 4.781342e-02 -1.154961e-01 2.453852e-01
    endloop
  endfacet
  facet normal -1.936682e-01 -9.810235e-01 -9.243379e-03
    outer loop
      vertex -2.780525e-02 -1.218664e-01 5.000000e-01
      vertex -4.771384e-02 -1.155373e-01 2.454045e-01
      vertex 4.592425e-17 -1.250000e-01 2.500000e-01
    endloop
  endfacet
  facet normal -1.119896e-01 -9.937094e-01 8.330697e-17
    outer loop
      vertex -2.780525e-02 -1.218664e-01 5.000000e-01
      vertex 4.592425e-17 -1.250000e-01 2.500000e-01
      vertex -1.530808e-17 -1.250000e-01 5.000000e-01
    endloop
  endfacet
  facet normal 5.536219e-01 -8.327557e-01 -4.552808e-03
    outer loop
      vertex 5.423784e-02 -1.126171e-01 5.000000e-01
      vertex 4.781342e-02 -1.154961e-01 2.453852e-01
      vertex 8.815478e-02 -8.861428e-02 2.339417e-01
    endloop
  endfacet
  facet normal 1.119752e-01 -9.935812e-01 -1.605964e-02
    outer loop
      vertex 2.780525e-02 -1.218664e-01 5.000000e-01
      vertex -1.530808e-17 -1.250000e-01 5.000000e-01
      vertex 4.781342e-02 -1.154961e-01 2.453852e-01
    endloop
  endfacet
  facet normal 3.302828e-01 -9.438791e-01 2.338958e-03
    outer loop
      vertex 2.780525e-02 -1.218664e-01 5.000000e-01
      vertex 4.781342e-02 -1.154961e-01 2.453852e-01
      vertex 5.423784e-02 -1.126171e-01 5.000000e-01
    endloop
  endfacet
  facet normal 7.726814e-01 -6.347898e-01 -2.326364e-03
    outer loop
      vertex 9.772238e-02 -7.794340e-02 5.000000e-01
      vertex 8.815478e-02 -8.861428e-02 2.339417e-01
      vertex 1.041325e-01 -6.914140e-02 2.272805e-01
    endloop
  endfacet
  facet normal 7.071037e-01 -7.071037e-01 2.932163e-03
    outer loop
      vertex 7.794340e-02 -9.772238e-02 5.000000e-01
      vertex 8.815478e-02 -8.861428e-02 2.339417e-01
      vertex 9.772238e-02 -7.794340e-02 5.000000e-01
    endloop
  endfacet
  facet normal 5.319999e-01 -8.467011e-01 -8.567270e-03
    outer loop
      vertex 5.423784e-02 -1.126171e-01 5.000000e-01
      vertex 8.815478e-02 -8.861428e-02 2.339417e-01
      vertex 7.794340e-02 -9.772238e-02 5.000000e-01
    endloop
  endfacet
  facet normal 8.845468e-01 -4.664470e-01 -2.028784e-03
    outer loop
      vertex 1.126171e-01 -5.423784e-02 5.000000e-01
      vertex 1.041325e-01 -6.914140e-02 2.272805e-01
      vertex 1.159177e-01 -4.676734e-02 2.215019e-01
    endloop
  endfacet
  facet normal 8.467290e-01 -5.320174e-01 2.731052e-03
    outer loop
      vertex 9.772238e-02 -7.794340e-02 5.000000e-01
      vertex 1.041325e-01 -6.914140e-02 2.272805e-01
      vertex 1.126171e-01 -5.423784e-02 5.000000e-01
    endloop
  endfacet
  facet normal 9.815936e-01 -1.908151e-01 -7.974601e-03
    outer loop
      vertex 1.218664e-01 -2.780525e-02 5.000000e-01
      vertex 1.159177e-01 -4.676734e-02 2.215019e-01
      vertex 1.250043e-01 1.850218e-04 2.165038e-01
    endloop
  endfacet
  facet normal 9.438791e-01 -3.302828e-01 2.326903e-03
    outer loop
      vertex 1.126171e-01 -5.423784e-02 5.000000e-01
      vertex 1.159177e-01 -4.676734e-02 2.215019e-01
      vertex 1.218664e-01 -2.780525e-02 5.000000e-01
    endloop
  endfacet
  facet normal 9.810294e-01 1.936934e-01 -8.012202e-03
    outer loop
      vertex 1.218664e-01 2.780525e-02 5.000000e-01
      vertex 1.250043e-01 1.850218e-04 2.165038e-01
      vertex 1.157829e-01 4.709985e-02 2.215724e-01
    endloop
  endfacet
  facet normal 9.937094e-01 1.119896e-01 8.831870e-05
    outer loop
      vertex 1.250000e-01 -7.654042e-18 5.000000e-01
      vertex 1.250043e-01 1.850218e-04 2.165038e-01
      vertex 1.218664e-01 2.780525e-02 5.000000e-01
    endloop
  endfacet
  facet normal 9.937094e-01 -1.119896e-01 -5.785978e-05
    outer loop
      vertex 1.218664e-01 -2.780525e-02 5.000000e-01
      vertex 1.250043e-01 1.850218e-04 2.165038e-01
      vertex 1.250000e-01 -7.654042e-18 5.000000e-01
    endloop
  endfacet
  facet normal 8.832113e-01 4.689711e-01 -1.980402e-03
    outer loop
      vertex 1.126171e-01 5.423784e-02 5.000000e-01
      vertex 1.157829e-01 4.709985e-02 2.215724e-01
      vertex 1.039340e-01 6.943944e-02 2.273714e-01
    endloop
  endfacet
  facet normal 9.438793e-01 3.302829e-01 2.264941e-03
    outer loop
      vertex 1.218664e-01 2.780525e-02 5.000000e-01
      vertex 1.157829e-01 4.709985e-02 2.215724e-01
      vertex 1.126171e-01 5.423784e-02 5.000000e-01
    endloop
  endfacet
  facet normal 7.710048e-01 6.368252e-01 -2.297553e-03
    outer loop
      vertex 9.772238e-02 7.794340e-02 5.000000e-01
      vertex 1.039340e-01 6.943944e-02 2.273714e-01
      vertex 8.793940e-02 8.882806e-02 2.340228e-01
    endloop
  endfacet
  facet normal 8.467291e-01 5.320175e-01 2.696965e-03
    outer loop
      vertex 1.126171e-01 5.423784e-02 5.000000e-01
      vertex 1.039340e-01 6.943944e-02 2.273714e-01
      vertex 9.772238e-02 7.794340e-02 5.000000e-01
    endloop
  endfacet
  facet normal 5.516813e-01 8.340243e-01 -7.156520e-03
    outer loop
      vertex 7.794340e-02 9.772238e-02 5.000000e-01
      vertex 8.793940e-02 8.882806e-02 2.340228e-01
      vertex 4.769957e-02 1.155432e-01 2.454073e-01
    endloop
  endfacet
  facet normal 7.071037e-01 7.071037e-01 2.928838e-03
    outer loop
      vertex 9.772238e-02 7.794340e-02 5.000000e-01
      vertex 8.793940e-02 8.882806e-02 2.340228e-01
      vertex 7.794340e-02 9.772238e-02 5.000000e-01
    endloop
  endfacet
  facet normal 1.936092e-01 9.810352e-01 -9.236675e-03
    outer loop
      vertex 2.780525e-02 1.218664e-01 5.000000e-01
      vertex 4.769957e-02 1.155432e-01 2.454073e-01
      vertex 4.592425e-17 1.250000e-01 2.500000e-01
    endloop
  endfacet
  facet normal 3.302828e-01 9.438791e-01 2.366076e-03
    outer loop
      vertex 5.423784e-02 1.126171e-01 5.000000e-01
      vertex 4.769957e-02 1.155432e-01 2.454073e-01
      vertex 2.780525e-02 1.218664e-01 5.000000e-01
    endloop
  endfacet
  facet normal 5.320153e-01 8.467256e-01 -3.931277e-03
    outer loop
      vertex 7.794340e-02 9.772238e-02 5.000000e-01
      vertex 4.769957e-02 1.155432e-01 2.454073e-01
      vertex 5.423784e-02 1.126171e-01 5.000000e-01
    endloop
  endfacet
  facet normal -1.949142e-01 9.808203e-01 -2.387011e-17
    outer loop
      vertex 1.530808e-17 1.250000e-01 5.000000e-01
      vertex 4.592425e-17 1.250000e-01 2.500000e-01
      vertex -4.780333e-02 1.155002e-01 2.453871e-01
    endloop
  endfacet
  facet normal 1.119896e-01 9.937094e-01 1.356160e-17
    outer loop
      vertex 2.780525e-02 1.218664e-01 5.000000e-01
      vertex 4.592425e-17 1.250000e-01 2.500000e-01
      vertex 1.530808e-17 1.250000e-01 5.000000e-01
    endloop
  endfacet
  facet normal -5.536138e-01 8.327611e-01 -4.560805e-03
    outer loop
      vertex -5.423784e-02 1.126171e-01 5.000000e-01
      vertex -4.780333e-02 1.155002e-01 2.453871e-01
      vertex -8.816104e-02 8.860803e-02 2.339394e-01
    endloop
  endfacet
  facet normal -3.302828e-01 9.438791e-01 2.341424e-03
    outer loop
      vertex -2.780525e-02 1.218664e-01 5.000000e-01
      vertex -4.780333e-02 1.155002e-01 2.453871e-01
      vertex -5.423784e-02 1.126171e-01 5.000000e-01
    endloop
  endfacet
  facet normal -1.119752e-01 9.935814e-01 -1.604785e-02
    outer loop
      vertex 1.530808e-17 1.250000e-01 5.000000e-01
      vertex -4.780333e-02 1.155002e-01 2.453871e-01
      vertex -2.780525e-02 1.218664e-01 5.000000e-01
    endloop
  endfacet
  facet normal -7.727351e-01 6.347244e-01 -2.327607e-03
    outer loop
      vertex -9.772238e-02 7.794340e-02 5.000000e-01
      vertex -8.816104e-02 8.860803e-02 2.339394e-01
      vertex -1.041395e-01 6.913094e-02 2.272773e-01
    endloop
  endfacet
  facet normal -7.071037e-01 7.071037e-01 2.932183e-03
    outer loop
      vertex -7.794340e-02 9.772238e-02 5.000000e-01
      vertex -8.816104e-02 8.860803e-02 2.339394e-01
      vertex -9.772238e-02 7.794340e-02 5.000000e-01
    endloop
  endfacet
  facet normal -5.319998e-01 8.467010e-01 -8.574548e-03
    outer loop
      vertex -5.423784e-02 1.126171e-01 5.000000e-01
      vertex -8.816104e-02 8.860803e-02 2.339394e-01
      vertex -7.794340e-02 9.772238e-02 5.000000e-01
    endloop
  endfacet
  facet normal -8.845779e-01 4.663880e-01 -2.028287e-03
    outer loop
      vertex -1.126171e-01 5.423784e-02 5.000000e-01
      vertex -1.041395e-01 6.913094e-02 2.272773e-01
      vertex -1.159193e-01 4.676350e-02 2.215011e-01
    endloop
  endfacet
  facet normal -8.467290e-01 5.320174e-01 2.732204e-03
    outer loop
      vertex -9.772238e-02 7.794340e-02 5.000000e-01
      vertex -1.041395e-01 6.913094e-02 2.272773e-01
      vertex -1.126171e-01 5.423784e-02 5.000000e-01
    endloop
  endfacet
  facet normal -9.815878e-01 1.908452e-01 -7.969524e-03
    outer loop
      vertex -1.218664e-01 2.780525e-02 5.000000e-01
      vertex -1.159193e-01 4.676350e-02 2.215011e-01
      vertex -1.250043e-01 -1.729497e-04 2.165038e-01
    endloop
  endfacet
  facet normal -9.438791e-01 3.302828e-01 2.327642e-03
    outer loop
      vertex -1.126171e-01 5.423784e-02 5.000000e-01
      vertex -1.159193e-01 4.676350e-02 2.215011e-01
      vertex -1.218664e-01 2.780525e-02 5.000000e-01
    endloop
  endfacet
  facet normal -9.810624e-01 -1.935266e-01 -8.003835e-03
    outer loop
      vertex -1.218664e-01 -2.780525e-02 5.000000e-01
      vertex -1.250043e-01 -1.729497e-04 2.165038e-01
      vertex -1.157942e-01 -4.707216e-02 2.215665e-01
    endloop
  endfacet
  facet normal -9.937094e-01 -1.119896e-01 8.353868e-05
    outer loop
      vertex -1.250000e-01 2.296213e-17 5.000000e-01
      vertex -1.250043e-01 -1.729497e-04 2.165038e-01
      vertex -1.218664e-01 -2.780525e-02 5.000000e-01
    endloop
  endfacet
  facet normal -9.937094e-01 1.119896e-01 -5.310210e-05
    outer loop
      vertex -1.218664e-01 2.780525e-02 5.000000e-01
      vertex -1.250043e-01 -1.729497e-04 2.165038e-01
      vertex -1.250000e-01 2.296213e-17 5.000000e-01
    endloop
  endfacet
  facet normal -8.833393e-01 -4.687299e-01 -1.983566e-03
    outer loop
      vertex -1.126171e-01 -5.423784e-02 5.000000e-01
      vertex -1.157942e-01 -4.707216e-02 2.215665e-01
      vertex -1.039555e-01 -6.940722e-02 2.273615e-01
    endloop
  endfacet
  facet normal -9.438793e-01 -3.302829e-01 2.270268e-03
    outer loop
      vertex -1.218664e-01 -2.780525e-02 5.000000e-01
      vertex -1.157942e-01 -4.707216e-02 2.215665e-01
      vertex -1.126171e-01 -5.423784e-02 5.000000e-01
    endloop
  endfacet
  facet normal -7.711886e-01 -6.366025e-01 -2.300726e-03
    outer loop
      vertex -9.772238e-02 -7.794340e-02 5.000000e-01
      vertex -1.039555e-01 -6.940722e-02 2.273615e-01
      vertex -8.796342e-02 -8.880424e-02 2.340138e-01
    endloop
  endfacet
  facet normal -8.467291e-01 -5.320175e-01 2.700794e-03
    outer loop
      vertex -1.126171e-01 -5.423784e-02 5.000000e-01
      vertex -1.039555e-01 -6.940722e-02 2.273615e-01
      vertex -9.772238e-02 -7.794340e-02 5.000000e-01
    endloop
  endfacet
  facet normal -5.518434e-01 -8.339169e-01 -7.171452e-03
    outer loop
      vertex -7.794340e-02 -9.772238e-02 5.000000e-01
      vertex -8.796342e-02 -8.880424e-02 2.340138e-01
      vertex -4.771384e-02 -1.155373e-01 2.454045e-01
    endloop
  endfacet
  facet normal -7.071037e-01 -7.071037e-01 2.929260e-03
    outer loop
      vertex -9.772238e-02 -7.794340e-02 5.000000e-01
      vertex -8.796342e-02 -8.880424e-02 2.340138e-01
      vertex -7.794340e-02 -9.772238e-02 5.000000e-01
    endloop
  endfacet
  facet normal -3.302828e-01 -9.438791e-01 2.362860e-03
    outer loop
      vertex -5.423784e-02 -1.126171e-01 5.000000e-01
      vertex -4.771384e-02 -1.155373e-01 2.454045e-01
      vertex -2.780525e-02 -1.218664e-01 5.000000e-01
    endloop
  endfacet
  facet normal -5.320153e-01 -8.467257e-01 -3.920884e-03
    outer loop
      vertex -7.794340e-02 -9.772238e-02 5.000000e-01
      vertex -4.771384e-02 -1.155373e-01 2.454045e-01
      vertex -5.423784e-02 -1.126171e-01 5.000000e-01
    endloop
  endfacet
  facet normal 0.000000e+00 0.000000e+00 1.000000e+00
    outer loop
      vertex -2.780525e-02 1.218664e-01 5.000000e-01
      vertex -2.780525e-02 -1.218664e-01 5.000000e-01
      vertex -1.530808e-17 -1.250000e-01 5.000000e-01
    endloop
  endfacet
  facet normal 0.000000e+00 0.000000e+00 1.000000e+00
    outer loop
      vertex 1.530808e-17 1.250000e-01 5.000000e-01
      vertex -2.780525e-02 1.218664e-01 5.000000e-01
      vertex -1.530808e-17 -1.250000e-01 5.000000e-01
    endloop
  endfacet
  facet normal 0.000000e+00 0.000000e+00 1.000000e+00
    outer loop
      vertex 2.780525e-02 -1.218664e-01 5.000000e-01
      vertex 1.530808e-17 1.250000e-01 5.000000e-01
      vertex -1.530808e-17 -1.250000e-01 5.000000e-01
    endloop
  endfacet
  facet normal 0.000000e+00 0.000000e+00 1.000000e+00
    outer loop
      vertex -5.423784e-02 1.126171e-01 5.000000e-01
      vertex -5.423784e-02 -1.126171e-01 5.000000e-01
      vertex -2.780525e-02 -1.218664e-01 5.000000e-01
    endloop
  endfacet
  facet normal 0.000000e+00 0.000000e+00 1.000000e+00
    outer loop
      vertex -2.780525e-02 1.218664e-01 5.000000e-01
      vertex -5.423784e-02 1.126171e-01 5.000000e-01
      vertex -2.780525e-02 -1.218664e-01 5.000000e-01
    endloop
  endfacet
  facet normal 0.000000e+00 0.000000e+00 1.000000e+00
    outer loop
      vertex -7.794340e-02 9.772238e-02 5.000000e-01
      vertex -7.794340e-02 -9.772238e-02 5.000000e-01
      vertex -5.423784e-02 -1.126171e-01 5.000000e-01
    endloop
  endfacet
  facet normal 0.000000e+00 0.000000e+00 1.000000e+00
    outer loop
      vertex -5.423784e-02 1.126171e-01 5.000000e-01
      vertex -7.794340e-02 9.772238e-02 5.000000e-01
      vertex -5.423784e-02 -1.126171e-01 5.000000e-01
    endloop
  endfacet
  facet normal 0.000000e+00 0.000000e+00 1.000000e+00
    outer loop
      vertex -9.772238e-02 7.794340e-02 5.000000e-01
      vertex -9.772238e-02 -7.794340e-02 5.000000e-01
      vertex -7.794340e-02 -9.772238e-02 5.000000e-01
    endloop
  endfacet
  facet normal 0.000000e+00 0.000000e+00 1.000000e+00
    outer loop
      vertex -7.794340e-02 9.772238e-02 5.000000e-01
      vertex -9.772238e-02 7.794340e-02 5.000000e-01
      vertex -7.794340e-02 -9.772238e-02 5.000000e-01
    endloop
  endfacet
  facet normal 0.000000e+00 0.000000e+00 1.000000e+00
    outer loop
      vertex -1.126171e-01 5.423784e-02 5.000000e-01
      vertex -1.126171e-01 -5.423784e-02 5.000000e-01
      vertex -9.772238e-02 -7.794340e-02 5.000000e-01
    endloop
  endfacet
  facet normal 0.000000e+00 0.000000e+00 1.000000e+00
    outer loop
      vertex -9.772238e-02 7.794340e-02 5.000000e-01
      vertex -1.126171e-01 5.423784e-02 5.000000e-01
      vertex -9.772238e-02 -7.794340e-02 5.000000e-01
    endloop
  endfacet
  facet normal 0.000000e+00 0.000000e+00 1.000000e+00
    outer loop
      vertex -1.218664e-01 2.780525e-02 5.000000e-01
      vertex -1.218664e-01 -2.780525e-02 5.000000e-01
      vertex -1.126171e-01 -5.423784e-02 5.000000e-01
    endloop
  endfacet
  facet normal 0.000000e+00 0.000000e+00 1.000000e+00
    outer loop
      vertex -1.126171e-01 5.423784e-02 5.000000e-01
      vertex -1.218664e-01 2.780525e-02 5.000000e-01
      vertex -1.126171e-01 -5.423784e-02 5.000000e-01
    endloop
  endfacet
  facet normal 0.000000e+00 0.000000e+00 1.000000e+00
    outer loop
      vertex -1.218664e-01 2.780525e-02 5.000000e-01
      vertex -1.250000e-01 2.296213e-17 5.000000e-01
      vertex -1.218664e-01 -2.780525e-02 5.000000e-01
    endloop
  endfacet
  facet normal 0.000000e+00 0.000000e+00 1.000000e+00
    outer loop
      vertex 2.780525e-02 -1.218664e-01 5.000000e-01
      vertex 2.780525e-02 1.218664e-01 5.000000e-01
      vertex 1.530808e-17 1.250000e-01 5.000000e-01
    endloop
  endfacet
  facet normal 0.000000e+00 0.000000e+00 1.000000e+00
    outer loop
      vertex 5.423784e-02 -1.126171e-01 5.000000e-01
      vertex 5.423784e-02 1.126171e-01 5.000000e-01
      vertex 2.780525e-02 1.218664e-01 5.000000e-01
    endloop
  endfacet
  facet normal 0.000000e+00 0.000000e+00 1.000000e+00
    outer loop
      vertex 2.780525e-02 -1.218664e-01 5.000000e-01
      vertex 5.423784e-02 -1.126171e-01 5.000000e-01
      vertex 2.780525e-02 1.218664e-01 5.000000e-01
    endloop
  endfacet
  facet normal 0.000000e+00 0.000000e+00 1.000000e+00
    outer loop
      vertex 7.794340e-02 -9.772238e-02 5.000000e-01
      vertex 7.794340e-02 9.772238e-02 5.000000e-01
      vertex 5.423784e-02 1.126171e-01 5.000000e-01
    endloop
  endfacet
  facet normal 0.000000e+00 0.000000e+00 1.000000e+00
    outer loop
      vertex 5.423784e-02 -1.126171e-01 5.000000e-01
      vertex 7.794340e-02 -9.772238e-02 5.000000e-01
      vertex 5.423784e-02 1.126171e-01 5.000000e-01
    endloop
  endfacet
  facet normal 0.000000e+00 0.000000e+00 1.000000e+00
    outer loop
      vertex 9.772238e-02 -7.794340e-02 5.000000e-01
      vertex 9.772238e-02 7.794340e-02 5.000000e-01
      vertex 7.794340e-02 9.772238e-02 5.000000e-01
    endloop
  endfacet
  facet normal 0.000000e+00 0.000000e+00 1.000000e+00
    outer loop
      vertex 7.794340e-02 -9.772238e-02 5.000000e-01
      vertex 9.772238e-02 -7.794340e-02 5.000000e-01
      vertex 7.794340e-02 9.772238e-02 5.000000e-01
    endloop
  endfacet
  facet normal 0.000000e+00 0.000000e+00 1.000000e+00
    outer loop
      vertex 1.126171e-01 -5.423784e-02 5.000000e-01
      vertex 1.126171e-01 5.423784e-02 5.000000e-01
      vertex 9.772238e-02 7.794340e-02 5.000000e-01
    endloop
  endfacet
  facet normal 0.000000e+00 0.000000e+00 1.000000e+00
    outer loop
      vertex 9.772238e-02 -7.794340e-02 5.000000e-01
      vertex 1.126171e-01 -5.423784e-02 5.000000e-01
      vertex 9.772238e-02 7.794340e-02 5.000000e-01
    endloop
  endfacet
  facet normal 0.000000e+00 0.000000e+00 1.000000e+00
    outer loop
      vertex 1.218664e-01 -2.780525e-02 5.000000e-01
      vertex 1.218664e-01 2.780525e-02 5.000000e-01
      vertex 1.126171e-01 5.423784e-02 5.000000e-01
    endloop
  endfacet
  facet normal 0.000000e+00 0.000000e+00 1.000000e+00
    outer loop
      vertex 1.126171e-01 -5.423784e-02 5.000000e-01
      vertex 1.218664e-01 -2.780525e-02 5.000000e-01
      vertex 1.126171e-01 5.423784e-02 5.000000e-01
    endloop
  endfacet
  facet normal 0.000000e+00 0.000000e+00 1.000000e+00
    outer loop
      vertex 1.218664e-01 -2.780525e-02 5.000000e-01
      vertex 1.250000e-01 -7.654042e-18 5.000000e-01
      vertex 1.218664e-01 2.780525e-02 5.000000e-01
    endloop
  endfacet
endsolid PRT0003
