solid PRT0001
  facet normal 0.000000e+00 1.000000e+00 0.000000e+00
    outer loop
      vertex 1.832004e-01 0.000000e+00 2.500000e-01
      vertex -1.832004e-01 0.000000e+00 1.701106e-01
      vertex -1.832004e-01 0.000000e+00 2.500000e-01
    endloop
  endfacet
  facet normal -9.937122e-01 -1.119645e-01 3.473552e-16
    outer loop
      vertex -1.786072e-01 -4.076592e-02 1.701106e-01
      vertex -1.832004e-01 0.000000e+00 2.500000e-01
      vertex -1.832004e-01 0.000000e+00 1.701106e-01
    endloop
  endfacet
  facet normal 0.000000e+00 -6.984336e-16 -1.000000e+00
    outer loop
      vertex 1.650565e-01 7.947949e-02 2.500000e-01
      vertex 1.832004e-01 0.000000e+00 2.500000e-01
      vertex -1.832004e-01 0.000000e+00 2.500000e-01
    endloop
  endfacet
  facet normal -9.937122e-01 -1.119645e-01 -2.574232e-16
    outer loop
      vertex -1.832004e-01 0.000000e+00 1.000000e+00
      vertex -1.832004e-01 0.000000e+00 2.500000e-01
      vertex -1.786072e-01 -4.076592e-02 1.701106e-01
    endloop
  endfacet
  facet normal -9.749193e-01 2.225588e-01 -2.517972e-16
    outer loop
      vertex -1.650565e-01 7.947949e-02 1.000000e+00
      vertex -1.832004e-01 0.000000e+00 2.500000e-01
      vertex -1.832004e-01 0.000000e+00 1.000000e+00
    endloop
  endfacet
  facet normal -9.749193e-01 2.225588e-01 3.772653e-16
    outer loop
      vertex -1.650565e-01 7.947949e-02 2.500000e-01
      vertex -1.832004e-01 0.000000e+00 2.500000e-01
      vertex -1.650565e-01 7.947949e-02 1.000000e+00
    endloop
  endfacet
  facet normal -2.756735e-15 1.327753e-15 -1.000000e+00
    outer loop
      vertex -1.142096e-01 1.432414e-01 2.500000e-01
      vertex -1.832004e-01 0.000000e+00 2.500000e-01
      vertex -1.650565e-01 7.947949e-02 2.500000e-01
    endloop
  endfacet
  facet normal 0.000000e+00 0.000000e+00 -1.000000e+00
    outer loop
      vertex -4.078165e-02 1.786002e-01 2.500000e-01
      vertex -1.832004e-01 0.000000e+00 2.500000e-01
      vertex -1.142096e-01 1.432414e-01 2.500000e-01
    endloop
  endfacet
  facet normal 0.000000e+00 0.000000e+00 -1.000000e+00
    outer loop
      vertex 4.078165e-02 1.786002e-01 2.500000e-01
      vertex -1.832004e-01 0.000000e+00 2.500000e-01
      vertex -4.078165e-02 1.786002e-01 2.500000e-01
    endloop
  endfacet
  facet normal 0.000000e+00 0.000000e+00 -1.000000e+00
    outer loop
      vertex 1.142096e-01 1.432414e-01 2.500000e-01
      vertex -1.832004e-01 0.000000e+00 2.500000e-01
      vertex 4.078165e-02 1.786002e-01 2.500000e-01
    endloop
  endfacet
  facet normal -3.029510e-16 6.290127e-16 -1.000000e+00
    outer loop
      vertex 1.650565e-01 7.947949e-02 2.500000e-01
      vertex -1.832004e-01 0.000000e+00 2.500000e-01
      vertex 1.142096e-01 1.432414e-01 2.500000e-01
    endloop
  endfacet
  facet normal 0.000000e+00 1.000000e+00 0.000000e+00
    outer loop
      vertex -2.292344e-01 0.000000e+00 -9.975258e-02
      vertex -2.336776e-01 0.000000e+00 8.885054e-02
      vertex -1.832004e-01 0.000000e+00 1.701106e-01
    endloop
  endfacet
  facet normal -8.400858e-01 -1.480978e-01 5.218457e-01
    outer loop
      vertex -2.195824e-01 -7.992147e-02 8.886011e-02
      vertex -1.832004e-01 0.000000e+00 1.701106e-01
      vertex -2.336776e-01 0.000000e+00 8.885054e-02
    endloop
  endfacet
  facet normal 0.000000e+00 1.000000e+00 0.000000e+00
    outer loop
      vertex -1.746549e-01 0.000000e+00 -1.788711e-01
      vertex -2.292344e-01 0.000000e+00 -9.975258e-02
      vertex -1.832004e-01 0.000000e+00 1.701106e-01
    endloop
  endfacet
  facet normal 0.000000e+00 1.000000e+00 0.000000e+00
    outer loop
      vertex 1.832004e-01 0.000000e+00 2.500000e-01
      vertex -1.746549e-01 0.000000e+00 -1.788711e-01
      vertex -1.832004e-01 0.000000e+00 1.701106e-01
    endloop
  endfacet
  facet normal -8.688311e-01 -9.789375e-02 4.853343e-01
    outer loop
      vertex -1.786072e-01 -4.076592e-02 1.701106e-01
      vertex -1.832004e-01 0.000000e+00 1.701106e-01
      vertex -2.195824e-01 -7.992147e-02 8.886011e-02
    endloop
  endfacet
  facet normal 0.000000e+00 1.000000e+00 0.000000e+00
    outer loop
      vertex -2.292344e-01 0.000000e+00 -9.975258e-02
      vertex -2.499290e-01 0.000000e+00 -5.889051e-03
      vertex -2.336776e-01 0.000000e+00 8.885054e-02
    endloop
  endfacet
  facet normal -9.710553e-01 -1.711880e-01 1.665720e-01
    outer loop
      vertex -2.348581e-01 -8.548137e-02 -5.881551e-03
      vertex -2.336776e-01 0.000000e+00 8.885054e-02
      vertex -2.499290e-01 0.000000e+00 -5.889051e-03
    endloop
  endfacet
  facet normal -9.710395e-01 -1.712357e-01 1.666149e-01
    outer loop
      vertex -2.195824e-01 -7.992147e-02 8.886011e-02
      vertex -2.336776e-01 0.000000e+00 8.885054e-02
      vertex -2.348581e-01 -8.548137e-02 -5.881551e-03
    endloop
  endfacet
  facet normal -9.623878e-01 -1.696707e-01 -2.121827e-01
    outer loop
      vertex -2.154115e-01 -7.840338e-02 -9.975366e-02
      vertex -2.499290e-01 0.000000e+00 -5.889051e-03
      vertex -2.292344e-01 0.000000e+00 -9.975258e-02
    endloop
  endfacet
  facet normal -9.623880e-01 -1.696931e-01 -2.121640e-01
    outer loop
      vertex -2.348581e-01 -8.548137e-02 -5.881551e-03
      vertex -2.499290e-01 0.000000e+00 -5.889051e-03
      vertex -2.154115e-01 -7.840338e-02 -9.975366e-02
    endloop
  endfacet
  facet normal -8.146043e-01 -1.436362e-01 -5.619506e-01
    outer loop
      vertex -1.641176e-01 -5.973392e-02 -1.788778e-01
      vertex -2.292344e-01 0.000000e+00 -9.975258e-02
      vertex -1.746549e-01 0.000000e+00 -1.788711e-01
    endloop
  endfacet
  facet normal -8.145985e-01 -1.436099e-01 -5.619657e-01
    outer loop
      vertex -2.154115e-01 -7.840338e-02 -9.975366e-02
      vertex -2.292344e-01 0.000000e+00 -9.975258e-02
      vertex -1.641176e-01 -5.973392e-02 -1.788778e-01
    endloop
  endfacet
  facet normal 0.000000e+00 1.000000e+00 0.000000e+00
    outer loop
      vertex 1.832004e-01 0.000000e+00 2.500000e-01
      vertex -9.425234e-02 0.000000e+00 -2.315517e-01
      vertex -1.746549e-01 0.000000e+00 -1.788711e-01
    endloop
  endfacet
  facet normal -5.455051e-01 -9.622653e-02 -8.325651e-01
    outer loop
      vertex -8.855992e-02 -3.223318e-02 -2.315560e-01
      vertex -1.746549e-01 0.000000e+00 -1.788711e-01
      vertex -9.425234e-02 0.000000e+00 -2.315517e-01
    endloop
  endfacet
  facet normal -5.454847e-01 -9.613226e-02 -8.325894e-01
    outer loop
      vertex -1.641176e-01 -5.973392e-02 -1.788778e-01
      vertex -1.746549e-01 0.000000e+00 -1.788711e-01
      vertex -8.855992e-02 -3.223318e-02 -2.315560e-01
    endloop
  endfacet
  facet normal 0.000000e+00 1.000000e+00 0.000000e+00
    outer loop
      vertex 1.832004e-01 0.000000e+00 2.500000e-01
      vertex -8.500284e-30 0.000000e+00 -2.500000e-01
      vertex -9.425234e-02 0.000000e+00 -2.315517e-01
    endloop
  endfacet
  facet normal -1.919786e-01 -3.377363e-02 -9.808178e-01
    outer loop
      vertex -8.855992e-02 -3.223318e-02 -2.315560e-01
      vertex -9.425234e-02 0.000000e+00 -2.315517e-01
      vertex -8.500284e-30 0.000000e+00 -2.500000e-01
    endloop
  endfacet
  facet normal 0.000000e+00 1.000000e+00 0.000000e+00
    outer loop
      vertex 1.832004e-01 0.000000e+00 2.500000e-01
      vertex 9.425234e-02 0.000000e+00 -2.315517e-01
      vertex -8.500284e-30 0.000000e+00 -2.500000e-01
    endloop
  endfacet
  facet normal 1.919786e-01 -3.377363e-02 -9.808178e-01
    outer loop
      vertex 8.855992e-02 -3.223318e-02 -2.315560e-01
      vertex -8.500284e-30 0.000000e+00 -2.500000e-01
      vertex 9.425234e-02 0.000000e+00 -2.315517e-01
    endloop
  endfacet
  facet normal -1.688003e-01 -9.745692e-02 -9.808204e-01
    outer loop
      vertex -7.219471e-02 -6.057855e-02 -2.315560e-01
      vertex -8.855992e-02 -3.223318e-02 -2.315560e-01
      vertex -8.500284e-30 0.000000e+00 -2.500000e-01
    endloop
  endfacet
  facet normal -1.252882e-01 -1.493127e-01 -9.808204e-01
    outer loop
      vertex -4.712175e-02 -8.161727e-02 -2.315560e-01
      vertex -7.219471e-02 -6.057855e-02 -2.315560e-01
      vertex -8.500284e-30 0.000000e+00 -2.500000e-01
    endloop
  endfacet
  facet normal -6.666446e-02 -1.831591e-01 -9.808204e-01
    outer loop
      vertex -1.636521e-02 -9.281173e-02 -2.315560e-01
      vertex -4.712175e-02 -8.161727e-02 -2.315560e-01
      vertex -8.500284e-30 0.000000e+00 -2.500000e-01
    endloop
  endfacet
  facet normal 0.000000e+00 -1.949138e-01 -9.808204e-01
    outer loop
      vertex 1.636521e-02 -9.281173e-02 -2.315560e-01
      vertex -1.636521e-02 -9.281173e-02 -2.315560e-01
      vertex -8.500284e-30 0.000000e+00 -2.500000e-01
    endloop
  endfacet
  facet normal 6.666446e-02 -1.831591e-01 -9.808204e-01
    outer loop
      vertex 4.712175e-02 -8.161727e-02 -2.315560e-01
      vertex 1.636521e-02 -9.281173e-02 -2.315560e-01
      vertex -8.500284e-30 0.000000e+00 -2.500000e-01
    endloop
  endfacet
  facet normal 1.252882e-01 -1.493127e-01 -9.808204e-01
    outer loop
      vertex 7.219471e-02 -6.057855e-02 -2.315560e-01
      vertex 4.712175e-02 -8.161727e-02 -2.315560e-01
      vertex -8.500284e-30 0.000000e+00 -2.500000e-01
    endloop
  endfacet
  facet normal 1.688003e-01 -9.745692e-02 -9.808204e-01
    outer loop
      vertex 8.855992e-02 -3.223318e-02 -2.315560e-01
      vertex 7.219471e-02 -6.057855e-02 -2.315560e-01
      vertex -8.500284e-30 0.000000e+00 -2.500000e-01
    endloop
  endfacet
  facet normal 0.000000e+00 1.000000e+00 0.000000e+00
    outer loop
      vertex 1.832004e-01 0.000000e+00 2.500000e-01
      vertex 1.746549e-01 0.000000e+00 -1.788711e-01
      vertex 9.425234e-02 0.000000e+00 -2.315517e-01
    endloop
  endfacet
  facet normal 5.455099e-01 -9.613670e-02 -8.325723e-01
    outer loop
      vertex 1.641176e-01 -5.973392e-02 -1.788778e-01
      vertex 9.425234e-02 0.000000e+00 -2.315517e-01
      vertex 1.746549e-01 0.000000e+00 -1.788711e-01
    endloop
  endfacet
  facet normal 5.454585e-01 -9.621828e-02 -8.325966e-01
    outer loop
      vertex 1.641176e-01 -5.973392e-02 -1.788778e-01
      vertex 8.855992e-02 -3.223318e-02 -2.315560e-01
      vertex 9.425234e-02 0.000000e+00 -2.315517e-01
    endloop
  endfacet
  facet normal 0.000000e+00 1.000000e+00 0.000000e+00
    outer loop
      vertex 1.832004e-01 0.000000e+00 1.701106e-01
      vertex 2.292344e-01 0.000000e+00 -9.975258e-02
      vertex 1.746549e-01 0.000000e+00 -1.788711e-01
    endloop
  endfacet
  facet normal 8.146073e-01 -1.436114e-01 -5.619526e-01
    outer loop
      vertex 2.154115e-01 -7.840338e-02 -9.975366e-02
      vertex 1.746549e-01 0.000000e+00 -1.788711e-01
      vertex 2.292344e-01 0.000000e+00 -9.975258e-02
    endloop
  endfacet
  facet normal 0.000000e+00 1.000000e+00 0.000000e+00
    outer loop
      vertex 1.832004e-01 0.000000e+00 2.500000e-01
      vertex 1.832004e-01 0.000000e+00 1.701106e-01
      vertex 1.746549e-01 0.000000e+00 -1.788711e-01
    endloop
  endfacet
  facet normal 8.145928e-01 -1.436342e-01 -5.619677e-01
    outer loop
      vertex 2.154115e-01 -7.840338e-02 -9.975366e-02
      vertex 1.641176e-01 -5.973392e-02 -1.788778e-01
      vertex 1.746549e-01 0.000000e+00 -1.788711e-01
    endloop
  endfacet
  facet normal 0.000000e+00 1.000000e+00 0.000000e+00
    outer loop
      vertex 2.336776e-01 0.000000e+00 8.885054e-02
      vertex 2.499290e-01 0.000000e+00 -5.889051e-03
      vertex 2.292344e-01 0.000000e+00 -9.975258e-02
    endloop
  endfacet
  facet normal 9.623842e-01 -1.696924e-01 -2.121819e-01
    outer loop
      vertex 2.348581e-01 -8.548137e-02 -5.881551e-03
      vertex 2.292344e-01 0.000000e+00 -9.975258e-02
      vertex 2.499290e-01 0.000000e+00 -5.889051e-03
    endloop
  endfacet
  facet normal 0.000000e+00 1.000000e+00 0.000000e+00
    outer loop
      vertex 1.832004e-01 0.000000e+00 1.701106e-01
      vertex 2.336776e-01 0.000000e+00 8.885054e-02
      vertex 2.292344e-01 0.000000e+00 -9.975258e-02
    endloop
  endfacet
  facet normal 9.623920e-01 -1.696714e-01 -2.121632e-01
    outer loop
      vertex 2.348581e-01 -8.548137e-02 -5.881551e-03
      vertex 2.154115e-01 -7.840338e-02 -9.975366e-02
      vertex 2.292344e-01 0.000000e+00 -9.975258e-02
    endloop
  endfacet
  facet normal 9.710469e-01 -1.712370e-01 1.665706e-01
    outer loop
      vertex 2.195824e-01 -7.992147e-02 8.886011e-02
      vertex 2.499290e-01 0.000000e+00 -5.889051e-03
      vertex 2.336776e-01 0.000000e+00 8.885054e-02
    endloop
  endfacet
  facet normal 9.710484e-01 -1.711868e-01 1.666135e-01
    outer loop
      vertex 2.195824e-01 -7.992147e-02 8.886011e-02
      vertex 2.348581e-01 -8.548137e-02 -5.881551e-03
      vertex 2.499290e-01 0.000000e+00 -5.889051e-03
    endloop
  endfacet
  facet normal 8.455888e-01 -9.527497e-02 5.252640e-01
    outer loop
      vertex 1.786072e-01 -4.076592e-02 1.701106e-01
      vertex 2.336776e-01 0.000000e+00 8.885054e-02
      vertex 1.832004e-01 0.000000e+00 1.701106e-01
    endloop
  endfacet
  facet normal 8.517775e-01 -1.501621e-01 5.019228e-01
    outer loop
      vertex 1.786072e-01 -4.076592e-02 1.701106e-01
      vertex 2.195824e-01 -7.992147e-02 8.886011e-02
      vertex 2.336776e-01 0.000000e+00 8.885054e-02
    endloop
  endfacet
  facet normal 9.749193e-01 -2.225588e-01 0.000000e+00
    outer loop
      vertex 1.650565e-01 -7.947949e-02 1.000000e+00
      vertex 1.832004e-01 0.000000e+00 1.701106e-01
      vertex 1.832004e-01 0.000000e+00 2.500000e-01
    endloop
  endfacet
  facet normal 9.936521e-01 -1.119577e-01 1.100196e-02
    outer loop
      vertex 1.650565e-01 -7.947949e-02 1.000000e+00
      vertex 1.786072e-01 -4.076592e-02 1.701106e-01
      vertex 1.832004e-01 0.000000e+00 1.701106e-01
    endloop
  endfacet
  facet normal 9.749193e-01 -2.225588e-01 0.000000e+00
    outer loop
      vertex 1.832004e-01 0.000000e+00 1.000000e+00
      vertex 1.650565e-01 -7.947949e-02 1.000000e+00
      vertex 1.832004e-01 0.000000e+00 2.500000e-01
    endloop
  endfacet
  facet normal 9.749193e-01 2.225588e-01 0.000000e+00
    outer loop
      vertex 1.650565e-01 7.947949e-02 2.500000e-01
      vertex 1.832004e-01 0.000000e+00 1.000000e+00
      vertex 1.832004e-01 0.000000e+00 2.500000e-01
    endloop
  endfacet
  facet normal -4.796781e-01 -2.769423e-01 -8.325935e-01
    outer loop
      vertex -1.641176e-01 -5.973392e-02 -1.788778e-01
      vertex -8.855992e-02 -3.223318e-02 -2.315560e-01
      vertex -7.219471e-02 -6.057855e-02 -2.315560e-01
    endloop
  endfacet
  facet normal -3.560301e-01 -4.243002e-01 -8.325935e-01
    outer loop
      vertex -1.337899e-01 -1.122631e-01 -1.788778e-01
      vertex -7.219471e-02 -6.057855e-02 -2.315560e-01
      vertex -4.712175e-02 -8.161727e-02 -2.315560e-01
    endloop
  endfacet
  facet normal -4.796781e-01 -2.769423e-01 -8.325935e-01
    outer loop
      vertex -1.337899e-01 -1.122631e-01 -1.788778e-01
      vertex -1.641176e-01 -5.973392e-02 -1.788778e-01
      vertex -7.219471e-02 -6.057855e-02 -2.315560e-01
    endloop
  endfacet
  facet normal -1.894397e-01 -5.204812e-01 -8.325935e-01
    outer loop
      vertex -8.732515e-02 -1.512516e-01 -1.788778e-01
      vertex -4.712175e-02 -8.161727e-02 -2.315560e-01
      vertex -1.636521e-02 -9.281173e-02 -2.315560e-01
    endloop
  endfacet
  facet normal -3.560301e-01 -4.243002e-01 -8.325935e-01
    outer loop
      vertex -8.732515e-02 -1.512516e-01 -1.788778e-01
      vertex -1.337899e-01 -1.122631e-01 -1.788778e-01
      vertex -4.712175e-02 -8.161727e-02 -2.315560e-01
    endloop
  endfacet
  facet normal 0.000000e+00 -5.538846e-01 -8.325935e-01
    outer loop
      vertex -3.032771e-02 -1.719970e-01 -1.788778e-01
      vertex -1.636521e-02 -9.281173e-02 -2.315560e-01
      vertex 1.636521e-02 -9.281173e-02 -2.315560e-01
    endloop
  endfacet
  facet normal -1.894397e-01 -5.204812e-01 -8.325935e-01
    outer loop
      vertex -3.032771e-02 -1.719970e-01 -1.788778e-01
      vertex -8.732515e-02 -1.512516e-01 -1.788778e-01
      vertex -1.636521e-02 -9.281173e-02 -2.315560e-01
    endloop
  endfacet
  facet normal 1.894397e-01 -5.204812e-01 -8.325935e-01
    outer loop
      vertex 3.032771e-02 -1.719970e-01 -1.788778e-01
      vertex 1.636521e-02 -9.281173e-02 -2.315560e-01
      vertex 4.712175e-02 -8.161727e-02 -2.315560e-01
    endloop
  endfacet
  facet normal 0.000000e+00 -5.538846e-01 -8.325935e-01
    outer loop
      vertex 3.032771e-02 -1.719970e-01 -1.788778e-01
      vertex -3.032771e-02 -1.719970e-01 -1.788778e-01
      vertex 1.636521e-02 -9.281173e-02 -2.315560e-01
    endloop
  endfacet
  facet normal 3.560301e-01 -4.243002e-01 -8.325935e-01
    outer loop
      vertex 8.732515e-02 -1.512516e-01 -1.788778e-01
      vertex 4.712175e-02 -8.161727e-02 -2.315560e-01
      vertex 7.219471e-02 -6.057855e-02 -2.315560e-01
    endloop
  endfacet
  facet normal 1.894397e-01 -5.204812e-01 -8.325935e-01
    outer loop
      vertex 8.732515e-02 -1.512516e-01 -1.788778e-01
      vertex 3.032771e-02 -1.719970e-01 -1.788778e-01
      vertex 4.712175e-02 -8.161727e-02 -2.315560e-01
    endloop
  endfacet
  facet normal 4.796781e-01 -2.769423e-01 -8.325935e-01
    outer loop
      vertex 1.337899e-01 -1.122631e-01 -1.788778e-01
      vertex 7.219471e-02 -6.057855e-02 -2.315560e-01
      vertex 8.855992e-02 -3.223318e-02 -2.315560e-01
    endloop
  endfacet
  facet normal 3.560301e-01 -4.243002e-01 -8.325935e-01
    outer loop
      vertex 1.337899e-01 -1.122631e-01 -1.788778e-01
      vertex 8.732515e-02 -1.512516e-01 -1.788778e-01
      vertex 7.219471e-02 -6.057855e-02 -2.315560e-01
    endloop
  endfacet
  facet normal 4.796781e-01 -2.769423e-01 -8.325935e-01
    outer loop
      vertex 1.641176e-01 -5.973392e-02 -1.788778e-01
      vertex 1.337899e-01 -1.122631e-01 -1.788778e-01
      vertex 8.855992e-02 -3.223318e-02 -2.315560e-01
    endloop
  endfacet
  facet normal -7.163408e-01 -4.135796e-01 -5.619678e-01
    outer loop
      vertex -2.154115e-01 -7.840338e-02 -9.975366e-02
      vertex -1.641176e-01 -5.973392e-02 -1.788778e-01
      vertex -1.337899e-01 -1.122631e-01 -1.788778e-01
    endloop
  endfacet
  facet normal -5.316876e-01 -6.336407e-01 -5.619678e-01
    outer loop
      vertex -1.756051e-01 -1.473501e-01 -9.975366e-02
      vertex -1.337899e-01 -1.122631e-01 -1.788778e-01
      vertex -8.732515e-02 -1.512516e-01 -1.788778e-01
    endloop
  endfacet
  facet normal -7.163408e-01 -4.135796e-01 -5.619678e-01
    outer loop
      vertex -1.756051e-01 -1.473501e-01 -9.975366e-02
      vertex -2.154115e-01 -7.840338e-02 -9.975366e-02
      vertex -1.337899e-01 -1.122631e-01 -1.788778e-01
    endloop
  endfacet
  facet normal -2.829051e-01 -7.772753e-01 -5.619678e-01
    outer loop
      vertex -1.146181e-01 -1.985243e-01 -9.975366e-02
      vertex -8.732515e-02 -1.512516e-01 -1.788778e-01
      vertex -3.032771e-02 -1.719970e-01 -1.788778e-01
    endloop
  endfacet
  facet normal -5.316876e-01 -6.336407e-01 -5.619678e-01
    outer loop
      vertex -1.146181e-01 -1.985243e-01 -9.975366e-02
      vertex -1.756051e-01 -1.473501e-01 -9.975366e-02
      vertex -8.732515e-02 -1.512516e-01 -1.788778e-01
    endloop
  endfacet
  facet normal 0.000000e+00 -8.271591e-01 -5.619678e-01
    outer loop
      vertex -3.980644e-02 -2.257535e-01 -9.975366e-02
      vertex -3.032771e-02 -1.719970e-01 -1.788778e-01
      vertex 3.032771e-02 -1.719970e-01 -1.788778e-01
    endloop
  endfacet
  facet normal -2.829051e-01 -7.772753e-01 -5.619678e-01
    outer loop
      vertex -3.980644e-02 -2.257535e-01 -9.975366e-02
      vertex -1.146181e-01 -1.985243e-01 -9.975366e-02
      vertex -3.032771e-02 -1.719970e-01 -1.788778e-01
    endloop
  endfacet
  facet normal 2.829051e-01 -7.772753e-01 -5.619678e-01
    outer loop
      vertex 3.980644e-02 -2.257535e-01 -9.975366e-02
      vertex 3.032771e-02 -1.719970e-01 -1.788778e-01
      vertex 8.732515e-02 -1.512516e-01 -1.788778e-01
    endloop
  endfacet
  facet normal -1.959198e-16 -8.271591e-01 -5.619678e-01
    outer loop
      vertex 3.980644e-02 -2.257535e-01 -9.975366e-02
      vertex -3.980644e-02 -2.257535e-01 -9.975366e-02
      vertex 3.032771e-02 -1.719970e-01 -1.788778e-01
    endloop
  endfacet
  facet normal 5.316876e-01 -6.336407e-01 -5.619678e-01
    outer loop
      vertex 1.146181e-01 -1.985243e-01 -9.975366e-02
      vertex 8.732515e-02 -1.512516e-01 -1.788778e-01
      vertex 1.337899e-01 -1.122631e-01 -1.788778e-01
    endloop
  endfacet
  facet normal 2.829051e-01 -7.772753e-01 -5.619678e-01
    outer loop
      vertex 1.146181e-01 -1.985243e-01 -9.975366e-02
      vertex 3.980644e-02 -2.257535e-01 -9.975366e-02
      vertex 8.732515e-02 -1.512516e-01 -1.788778e-01
    endloop
  endfacet
  facet normal 7.163408e-01 -4.135796e-01 -5.619678e-01
    outer loop
      vertex 1.756051e-01 -1.473501e-01 -9.975366e-02
      vertex 1.337899e-01 -1.122631e-01 -1.788778e-01
      vertex 1.641176e-01 -5.973392e-02 -1.788778e-01
    endloop
  endfacet
  facet normal 5.316876e-01 -6.336407e-01 -5.619678e-01
    outer loop
      vertex 1.756051e-01 -1.473501e-01 -9.975366e-02
      vertex 1.146181e-01 -1.985243e-01 -9.975366e-02
      vertex 1.337899e-01 -1.122631e-01 -1.788778e-01
    endloop
  endfacet
  facet normal 7.163408e-01 -4.135796e-01 -5.619678e-01
    outer loop
      vertex 2.154115e-01 -7.840338e-02 -9.975366e-02
      vertex 1.756051e-01 -1.473501e-01 -9.975366e-02
      vertex 1.641176e-01 -5.973392e-02 -1.788778e-01
    endloop
  endfacet
  facet normal -8.463095e-01 -4.886170e-01 -2.121641e-01
    outer loop
      vertex -2.348581e-01 -8.548137e-02 -5.881551e-03
      vertex -2.154115e-01 -7.840338e-02 -9.975366e-02
      vertex -1.756051e-01 -1.473501e-01 -9.975366e-02
    endloop
  endfacet
  facet normal -6.281539e-01 -7.486047e-01 -2.121641e-01
    outer loop
      vertex -1.914581e-01 -1.606524e-01 -5.881551e-03
      vertex -1.756051e-01 -1.473501e-01 -9.975366e-02
      vertex -1.146181e-01 -1.985243e-01 -9.975366e-02
    endloop
  endfacet
  facet normal -8.463095e-01 -4.886170e-01 -2.121641e-01
    outer loop
      vertex -1.914581e-01 -1.606524e-01 -5.881551e-03
      vertex -2.348581e-01 -8.548137e-02 -5.881551e-03
      vertex -1.756051e-01 -1.473501e-01 -9.975366e-02
    endloop
  endfacet
  facet normal -3.342337e-01 -9.182996e-01 -2.121641e-01
    outer loop
      vertex -1.249654e-01 -2.164464e-01 -5.881551e-03
      vertex -1.146181e-01 -1.985243e-01 -9.975366e-02
      vertex -3.980644e-02 -2.257535e-01 -9.975366e-02
    endloop
  endfacet
  facet normal -6.281539e-01 -7.486047e-01 -2.121641e-01
    outer loop
      vertex -1.249654e-01 -2.164464e-01 -5.881551e-03
      vertex -1.914581e-01 -1.606524e-01 -5.881551e-03
      vertex -1.146181e-01 -1.985243e-01 -9.975366e-02
    endloop
  endfacet
  facet normal -5.670860e-17 -9.772341e-01 -2.121641e-01
    outer loop
      vertex -4.340003e-02 -2.461338e-01 -5.881551e-03
      vertex -3.980644e-02 -2.257535e-01 -9.975366e-02
      vertex 3.980644e-02 -2.257535e-01 -9.975366e-02
    endloop
  endfacet
  facet normal -3.342337e-01 -9.182996e-01 -2.121641e-01
    outer loop
      vertex -4.340003e-02 -2.461338e-01 -5.881551e-03
      vertex -1.249654e-01 -2.164464e-01 -5.881551e-03
      vertex -3.980644e-02 -2.257535e-01 -9.975366e-02
    endloop
  endfacet
  facet normal 3.342337e-01 -9.182996e-01 -2.121641e-01
    outer loop
      vertex 4.340003e-02 -2.461338e-01 -5.881551e-03
      vertex 3.980644e-02 -2.257535e-01 -9.975366e-02
      vertex 1.146181e-01 -1.985243e-01 -9.975366e-02
    endloop
  endfacet
  facet normal -3.816143e-17 -9.772341e-01 -2.121641e-01
    outer loop
      vertex 4.340003e-02 -2.461338e-01 -5.881551e-03
      vertex -4.340003e-02 -2.461338e-01 -5.881551e-03
      vertex 3.980644e-02 -2.257535e-01 -9.975366e-02
    endloop
  endfacet
  facet normal 6.281539e-01 -7.486047e-01 -2.121641e-01
    outer loop
      vertex 1.249654e-01 -2.164464e-01 -5.881551e-03
      vertex 1.146181e-01 -1.985243e-01 -9.975366e-02
      vertex 1.756051e-01 -1.473501e-01 -9.975366e-02
    endloop
  endfacet
  facet normal 3.342337e-01 -9.182996e-01 -2.121641e-01
    outer loop
      vertex 1.249654e-01 -2.164464e-01 -5.881551e-03
      vertex 4.340003e-02 -2.461338e-01 -5.881551e-03
      vertex 1.146181e-01 -1.985243e-01 -9.975366e-02
    endloop
  endfacet
  facet normal 8.463095e-01 -4.886170e-01 -2.121641e-01
    outer loop
      vertex 1.914581e-01 -1.606524e-01 -5.881551e-03
      vertex 1.756051e-01 -1.473501e-01 -9.975366e-02
      vertex 2.154115e-01 -7.840338e-02 -9.975366e-02
    endloop
  endfacet
  facet normal 6.281539e-01 -7.486047e-01 -2.121641e-01
    outer loop
      vertex 1.914581e-01 -1.606524e-01 -5.881551e-03
      vertex 1.249654e-01 -2.164464e-01 -5.881551e-03
      vertex 1.756051e-01 -1.473501e-01 -9.975366e-02
    endloop
  endfacet
  facet normal 8.463095e-01 -4.886170e-01 -2.121641e-01
    outer loop
      vertex 2.348581e-01 -8.548137e-02 -5.881551e-03
      vertex 1.914581e-01 -1.606524e-01 -5.881551e-03
      vertex 2.154115e-01 -7.840338e-02 -9.975366e-02
    endloop
  endfacet
  facet normal -8.539202e-01 -4.930111e-01 1.666145e-01
    outer loop
      vertex -2.195824e-01 -7.992147e-02 8.886011e-02
      vertex -2.348581e-01 -8.548137e-02 -5.881551e-03
      vertex -1.914581e-01 -1.606524e-01 -5.881551e-03
    endloop
  endfacet
  facet normal -6.338028e-01 -7.553368e-01 1.666145e-01
    outer loop
      vertex -1.790052e-01 -1.502032e-01 8.886011e-02
      vertex -1.914581e-01 -1.606524e-01 -5.881551e-03
      vertex -1.249654e-01 -2.164464e-01 -5.881551e-03
    endloop
  endfacet
  facet normal -8.539202e-01 -4.930111e-01 1.666145e-01
    outer loop
      vertex -1.790052e-01 -1.502032e-01 8.886011e-02
      vertex -2.195824e-01 -7.992147e-02 8.886011e-02
      vertex -1.914581e-01 -1.606524e-01 -5.881551e-03
    endloop
  endfacet
  facet normal -3.372394e-01 -9.265577e-01 1.666145e-01
    outer loop
      vertex -1.168374e-01 -2.023683e-01 8.886011e-02
      vertex -1.249654e-01 -2.164464e-01 -5.881551e-03
      vertex -4.340003e-02 -2.461338e-01 -5.881551e-03
    endloop
  endfacet
  facet normal -6.338028e-01 -7.553368e-01 1.666145e-01
    outer loop
      vertex -1.168374e-01 -2.023683e-01 8.886011e-02
      vertex -1.790052e-01 -1.502032e-01 8.886011e-02
      vertex -1.249654e-01 -2.164464e-01 -5.881551e-03
    endloop
  endfacet
  facet normal 2.599955e-17 -9.860221e-01 1.666145e-01
    outer loop
      vertex -4.057719e-02 -2.301247e-01 8.886011e-02
      vertex -4.340003e-02 -2.461338e-01 -5.881551e-03
      vertex 4.340003e-02 -2.461338e-01 -5.881551e-03
    endloop
  endfacet
  facet normal -3.372394e-01 -9.265577e-01 1.666145e-01
    outer loop
      vertex -4.057719e-02 -2.301247e-01 8.886011e-02
      vertex -1.168374e-01 -2.023683e-01 8.886011e-02
      vertex -4.340003e-02 -2.461338e-01 -5.881551e-03
    endloop
  endfacet
  facet normal 3.372394e-01 -9.265577e-01 1.666145e-01
    outer loop
      vertex 4.057719e-02 -2.301247e-01 8.886011e-02
      vertex 4.340003e-02 -2.461338e-01 -5.881551e-03
      vertex 1.249654e-01 -2.164464e-01 -5.881551e-03
    endloop
  endfacet
  facet normal 5.698375e-17 -9.860221e-01 1.666145e-01
    outer loop
      vertex 4.057719e-02 -2.301247e-01 8.886011e-02
      vertex -4.057719e-02 -2.301247e-01 8.886011e-02
      vertex 4.340003e-02 -2.461338e-01 -5.881551e-03
    endloop
  endfacet
  facet normal 6.338028e-01 -7.553368e-01 1.666145e-01
    outer loop
      vertex 1.168374e-01 -2.023683e-01 8.886011e-02
      vertex 1.249654e-01 -2.164464e-01 -5.881551e-03
      vertex 1.914581e-01 -1.606524e-01 -5.881551e-03
    endloop
  endfacet
  facet normal 3.372394e-01 -9.265577e-01 1.666145e-01
    outer loop
      vertex 1.168374e-01 -2.023683e-01 8.886011e-02
      vertex 4.057719e-02 -2.301247e-01 8.886011e-02
      vertex 1.249654e-01 -2.164464e-01 -5.881551e-03
    endloop
  endfacet
  facet normal 8.539202e-01 -4.930111e-01 1.666145e-01
    outer loop
      vertex 1.790052e-01 -1.502032e-01 8.886011e-02
      vertex 1.914581e-01 -1.606524e-01 -5.881551e-03
      vertex 2.348581e-01 -8.548137e-02 -5.881551e-03
    endloop
  endfacet
  facet normal 6.338028e-01 -7.553368e-01 1.666145e-01
    outer loop
      vertex 1.790052e-01 -1.502032e-01 8.886011e-02
      vertex 1.168374e-01 -2.023683e-01 8.886011e-02
      vertex 1.914581e-01 -1.606524e-01 -5.881551e-03
    endloop
  endfacet
  facet normal 8.539202e-01 -4.930111e-01 1.666145e-01
    outer loop
      vertex 2.195824e-01 -7.992147e-02 8.886011e-02
      vertex 1.790052e-01 -1.502032e-01 8.886011e-02
      vertex 2.348581e-01 -8.548137e-02 -5.881551e-03
    endloop
  endfacet
  facet normal -7.478924e-01 -4.317959e-01 5.041917e-01
    outer loop
      vertex -1.650578e-01 -7.948767e-02 1.701106e-01
      vertex -2.195824e-01 -7.992147e-02 8.886011e-02
      vertex -1.790052e-01 -1.502032e-01 8.886011e-02
    endloop
  endfacet
  facet normal -7.967474e-01 -2.787940e-01 5.361599e-01
    outer loop
      vertex -1.650578e-01 -7.948767e-02 1.701106e-01
      vertex -1.786072e-01 -4.076592e-02 1.701106e-01
      vertex -2.195824e-01 -7.992147e-02 8.886011e-02
    endloop
  endfacet
  facet normal -5.564590e-01 -6.631620e-01 5.005692e-01
    outer loop
      vertex -1.142236e-01 -1.432318e-01 1.701106e-01
      vertex -1.790052e-01 -1.502032e-01 8.886011e-02
      vertex -1.168374e-01 -2.023683e-01 8.886011e-02
    endloop
  endfacet
  facet normal -7.233666e-01 -4.545214e-01 5.197606e-01
    outer loop
      vertex -1.432318e-01 -1.142236e-01 1.701106e-01
      vertex -1.650578e-01 -7.948767e-02 1.701106e-01
      vertex -1.790052e-01 -1.502032e-01 8.886011e-02
    endloop
  endfacet
  facet normal -5.997729e-01 -5.997729e-01 5.296649e-01
    outer loop
      vertex -1.142236e-01 -1.432318e-01 1.701106e-01
      vertex -1.432318e-01 -1.142236e-01 1.701106e-01
      vertex -1.790052e-01 -1.502032e-01 8.886011e-02
    endloop
  endfacet
  facet normal -2.947350e-01 -8.097778e-01 5.073373e-01
    outer loop
      vertex -7.948767e-02 -1.650578e-01 1.701106e-01
      vertex -1.168374e-01 -2.023683e-01 8.886011e-02
      vertex -4.057719e-02 -2.301247e-01 8.886011e-02
    endloop
  endfacet
  facet normal -4.494603e-01 -7.153120e-01 5.350834e-01
    outer loop
      vertex -7.948767e-02 -1.650578e-01 1.701106e-01
      vertex -1.142236e-01 -1.432318e-01 1.701106e-01
      vertex -1.168374e-01 -2.023683e-01 8.886011e-02
    endloop
  endfacet
  facet normal 1.708642e-16 -8.659594e-01 5.001144e-01
    outer loop
      vertex 8.839086e-17 -1.832004e-01 1.701106e-01
      vertex -4.057719e-02 -2.301247e-01 8.886011e-02
      vertex 4.057719e-02 -2.301247e-01 8.886011e-02
    endloop
  endfacet
  facet normal -2.834980e-01 -8.101908e-01 5.130494e-01
    outer loop
      vertex -4.076592e-02 -1.786072e-01 1.701106e-01
      vertex -7.948767e-02 -1.650578e-01 1.701106e-01
      vertex -4.057719e-02 -2.301247e-01 8.886011e-02
    endloop
  endfacet
  facet normal -9.474027e-02 -8.408431e-01 5.329232e-01
    outer loop
      vertex 8.839086e-17 -1.832004e-01 1.701106e-01
      vertex -4.076592e-02 -1.786072e-01 1.701106e-01
      vertex -4.057719e-02 -2.301247e-01 8.886011e-02
    endloop
  endfacet
  facet normal 2.939230e-01 -8.075468e-01 5.113487e-01
    outer loop
      vertex 4.076592e-02 -1.786072e-01 1.701106e-01
      vertex 4.057719e-02 -2.301247e-01 8.886011e-02
      vertex 1.168374e-01 -2.023683e-01 8.886011e-02
    endloop
  endfacet
  facet normal 9.474027e-02 -8.408431e-01 5.329232e-01
    outer loop
      vertex 4.076592e-02 -1.786072e-01 1.701106e-01
      vertex 8.839086e-17 -1.832004e-01 1.701106e-01
      vertex 4.057719e-02 -2.301247e-01 8.886011e-02
    endloop
  endfacet
  facet normal 5.564590e-01 -6.631620e-01 5.005692e-01
    outer loop
      vertex 1.142236e-01 -1.432318e-01 1.701106e-01
      vertex 1.168374e-01 -2.023683e-01 8.886011e-02
      vertex 1.790052e-01 -1.502032e-01 8.886011e-02
    endloop
  endfacet
  facet normal 2.850490e-01 -8.146233e-01 5.051098e-01
    outer loop
      vertex 7.948767e-02 -1.650578e-01 1.701106e-01
      vertex 4.076592e-02 -1.786072e-01 1.701106e-01
      vertex 1.168374e-01 -2.023683e-01 8.886011e-02
    endloop
  endfacet
  facet normal 4.494603e-01 -7.153120e-01 5.350834e-01
    outer loop
      vertex 1.142236e-01 -1.432318e-01 1.701106e-01
      vertex 7.948767e-02 -1.650578e-01 1.701106e-01
      vertex 1.168374e-01 -2.023683e-01 8.886011e-02
    endloop
  endfacet
  facet normal 7.417223e-01 -4.282336e-01 5.162015e-01
    outer loop
      vertex 1.432318e-01 -1.142236e-01 1.701106e-01
      vertex 1.790052e-01 -1.502032e-01 8.886011e-02
      vertex 2.195824e-01 -7.992147e-02 8.886011e-02
    endloop
  endfacet
  facet normal 5.997729e-01 -5.997729e-01 5.296649e-01
    outer loop
      vertex 1.432318e-01 -1.142236e-01 1.701106e-01
      vertex 1.142236e-01 -1.432318e-01 1.701106e-01
      vertex 1.790052e-01 -1.502032e-01 8.886011e-02
    endloop
  endfacet
  facet normal 7.352824e-01 -4.620086e-01 4.958909e-01
    outer loop
      vertex 1.650578e-01 -7.948767e-02 1.701106e-01
      vertex 1.432318e-01 -1.142236e-01 1.701106e-01
      vertex 2.195824e-01 -7.992147e-02 8.886011e-02
    endloop
  endfacet
  facet normal 7.967474e-01 -2.787940e-01 5.361599e-01
    outer loop
      vertex 1.786072e-01 -4.076592e-02 1.701106e-01
      vertex 1.650578e-01 -7.948767e-02 1.701106e-01
      vertex 2.195824e-01 -7.992147e-02 8.886011e-02
    endloop
  endfacet
  facet normal -9.438262e-01 -3.302591e-01 1.099920e-02
    outer loop
      vertex -1.832004e-01 0.000000e+00 1.000000e+00
      vertex -1.786072e-01 -4.076592e-02 1.701106e-01
      vertex -1.650578e-01 -7.948767e-02 1.701106e-01
    endloop
  endfacet
  facet normal -8.467242e-01 -5.320321e-01 6.650037e-06
    outer loop
      vertex -1.650565e-01 -7.947949e-02 1.000000e+00
      vertex -1.650578e-01 -7.948767e-02 1.701106e-01
      vertex -1.432318e-01 -1.142236e-01 1.701106e-01
    endloop
  endfacet
  facet normal -9.749193e-01 -2.225588e-01 3.815782e-06
    outer loop
      vertex -1.650565e-01 -7.947949e-02 1.000000e+00
      vertex -1.832004e-01 0.000000e+00 1.000000e+00
      vertex -1.650578e-01 -7.948767e-02 1.701106e-01
    endloop
  endfacet
  facet normal -7.070639e-01 -7.070639e-01 1.100734e-02
    outer loop
      vertex -1.650565e-01 -7.947949e-02 1.000000e+00
      vertex -1.432318e-01 -1.142236e-01 1.701106e-01
      vertex -1.142236e-01 -1.432318e-01 1.701106e-01
    endloop
  endfacet
  facet normal -5.320321e-01 -8.467242e-01 -8.424086e-07
    outer loop
      vertex -1.142096e-01 -1.432414e-01 1.000000e+00
      vertex -1.142236e-01 -1.432318e-01 1.701106e-01
      vertex -7.948767e-02 -1.650578e-01 1.701106e-01
    endloop
  endfacet
  facet normal -7.818411e-01 -6.234778e-01 5.929197e-06
    outer loop
      vertex -1.142096e-01 -1.432414e-01 1.000000e+00
      vertex -1.650565e-01 -7.947949e-02 1.000000e+00
      vertex -1.142236e-01 -1.432318e-01 1.701106e-01
    endloop
  endfacet
  facet normal -3.302591e-01 -9.438263e-01 1.099385e-02
    outer loop
      vertex -1.142096e-01 -1.432414e-01 1.000000e+00
      vertex -7.948767e-02 -1.650578e-01 1.701106e-01
      vertex -4.076592e-02 -1.786072e-01 1.701106e-01
    endloop
  endfacet
  facet normal -1.119645e-01 -9.937122e-01 6.262807e-06
    outer loop
      vertex -4.078165e-02 -1.786002e-01 1.000000e+00
      vertex -4.076592e-02 -1.786072e-01 1.701106e-01
      vertex 8.839086e-17 -1.832004e-01 1.701106e-01
    endloop
  endfacet
  facet normal -4.338609e-01 -9.009799e-01 -6.216907e-07
    outer loop
      vertex -4.078165e-02 -1.786002e-01 1.000000e+00
      vertex -1.142096e-01 -1.432414e-01 1.000000e+00
      vertex -4.076592e-02 -1.786072e-01 1.701106e-01
    endloop
  endfacet
  facet normal 1.119577e-01 -9.936520e-01 1.100970e-02
    outer loop
      vertex -4.078165e-02 -1.786002e-01 1.000000e+00
      vertex 8.839086e-17 -1.832004e-01 1.701106e-01
      vertex 4.076592e-02 -1.786072e-01 1.701106e-01
    endloop
  endfacet
  facet normal 3.302791e-01 -9.438833e-01 1.703879e-06
    outer loop
      vertex 4.078165e-02 -1.786002e-01 1.000000e+00
      vertex 4.076592e-02 -1.786072e-01 1.701106e-01
      vertex 7.948767e-02 -1.650578e-01 1.701106e-01
    endloop
  endfacet
  facet normal 0.000000e+00 -1.000000e+00 8.438307e-06
    outer loop
      vertex 4.078165e-02 -1.786002e-01 1.000000e+00
      vertex -4.078165e-02 -1.786002e-01 1.000000e+00
      vertex 4.076592e-02 -1.786072e-01 1.701106e-01
    endloop
  endfacet
  facet normal 5.319999e-01 -8.466730e-01 1.099626e-02
    outer loop
      vertex 4.078165e-02 -1.786002e-01 1.000000e+00
      vertex 7.948767e-02 -1.650578e-01 1.701106e-01
      vertex 1.142236e-01 -1.432318e-01 1.701106e-01
    endloop
  endfacet
  facet normal 7.071068e-01 -7.071068e-01 3.708936e-06
    outer loop
      vertex 1.142096e-01 -1.432414e-01 1.000000e+00
      vertex 1.142236e-01 -1.432318e-01 1.701106e-01
      vertex 1.432318e-01 -1.142236e-01 1.701106e-01
    endloop
  endfacet
  facet normal 4.338609e-01 -9.009799e-01 -3.117068e-06
    outer loop
      vertex 1.142096e-01 -1.432414e-01 1.000000e+00
      vertex 4.078165e-02 -1.786002e-01 1.000000e+00
      vertex 1.142236e-01 -1.432318e-01 1.701106e-01
    endloop
  endfacet
  facet normal 8.466729e-01 -5.319998e-01 1.100727e-02
    outer loop
      vertex 1.142096e-01 -1.432414e-01 1.000000e+00
      vertex 1.432318e-01 -1.142236e-01 1.701106e-01
      vertex 1.650578e-01 -7.948767e-02 1.701106e-01
    endloop
  endfacet
  facet normal 9.438833e-01 -3.302791e-01 4.824949e-06
    outer loop
      vertex 1.650565e-01 -7.947949e-02 1.000000e+00
      vertex 1.650578e-01 -7.948767e-02 1.701106e-01
      vertex 1.786072e-01 -4.076592e-02 1.701106e-01
    endloop
  endfacet
  facet normal 7.818411e-01 -6.234778e-01 7.442547e-06
    outer loop
      vertex 1.650565e-01 -7.947949e-02 1.000000e+00
      vertex 1.142096e-01 -1.432414e-01 1.000000e+00
      vertex 1.650578e-01 -7.948767e-02 1.701106e-01
    endloop
  endfacet
  facet normal 0.000000e+00 0.000000e+00 1.000000e+00
    outer loop
      vertex 1.832004e-01 0.000000e+00 1.000000e+00
      vertex -1.832004e-01 0.000000e+00 1.000000e+00
      vertex -1.650565e-01 -7.947949e-02 1.000000e+00
    endloop
  endfacet
  facet normal 0.000000e+00 0.000000e+00 1.000000e+00
    outer loop
      vertex 1.650565e-01 7.947949e-02 1.000000e+00
      vertex -1.832004e-01 0.000000e+00 1.000000e+00
      vertex 1.832004e-01 0.000000e+00 1.000000e+00
    endloop
  endfacet
  facet normal 0.000000e+00 0.000000e+00 1.000000e+00
    outer loop
      vertex -1.650565e-01 7.947949e-02 1.000000e+00
      vertex -1.832004e-01 0.000000e+00 1.000000e+00
      vertex 1.650565e-01 7.947949e-02 1.000000e+00
    endloop
  endfacet
  facet normal 0.000000e+00 0.000000e+00 1.000000e+00
    outer loop
      vertex 1.650565e-01 -7.947949e-02 1.000000e+00
      vertex -1.650565e-01 -7.947949e-02 1.000000e+00
      vertex -1.142096e-01 -1.432414e-01 1.000000e+00
    endloop
  endfacet
  facet normal 0.000000e+00 0.000000e+00 1.000000e+00
    outer loop
      vertex 1.832004e-01 0.000000e+00 1.000000e+00
      vertex -1.650565e-01 -7.947949e-02 1.000000e+00
      vertex 1.650565e-01 -7.947949e-02 1.000000e+00
    endloop
  endfacet
  facet normal 0.000000e+00 0.000000e+00 1.000000e+00
    outer loop
      vertex 1.142096e-01 -1.432414e-01 1.000000e+00
      vertex -1.142096e-01 -1.432414e-01 1.000000e+00
      vertex -4.078165e-02 -1.786002e-01 1.000000e+00
    endloop
  endfacet
  facet normal 0.000000e+00 0.000000e+00 1.000000e+00
    outer loop
      vertex 1.650565e-01 -7.947949e-02 1.000000e+00
      vertex -1.142096e-01 -1.432414e-01 1.000000e+00
      vertex 1.142096e-01 -1.432414e-01 1.000000e+00
    endloop
  endfacet
  facet normal 0.000000e+00 0.000000e+00 1.000000e+00
    outer loop
      vertex 1.142096e-01 -1.432414e-01 1.000000e+00
      vertex -4.078165e-02 -1.786002e-01 1.000000e+00
      vertex 4.078165e-02 -1.786002e-01 1.000000e+00
    endloop
  endfacet
  facet normal 9.749193e-01 2.225588e-01 -1.960660e-17
    outer loop
      vertex 1.650565e-01 7.947949e-02 2.500000e-01
      vertex 1.650565e-01 7.947949e-02 1.000000e+00
      vertex 1.832004e-01 0.000000e+00 1.000000e+00
    endloop
  endfacet
  facet normal 0.000000e+00 0.000000e+00 1.000000e+00
    outer loop
      vertex -1.650565e-01 7.947949e-02 1.000000e+00
      vertex 1.650565e-01 7.947949e-02 1.000000e+00
      vertex 1.142096e-01 1.432414e-01 1.000000e+00
    endloop
  endfacet
  facet normal 7.818411e-01 6.234778e-01 4.889235e-17
    outer loop
      vertex 1.142096e-01 1.432414e-01 2.500000e-01
      vertex 1.142096e-01 1.432414e-01 1.000000e+00
      vertex 1.650565e-01 7.947949e-02 1.000000e+00
    endloop
  endfacet
  facet normal 7.818411e-01 6.234778e-01 1.721269e-17
    outer loop
      vertex 1.650565e-01 7.947949e-02 2.500000e-01
      vertex 1.142096e-01 1.432414e-01 2.500000e-01
      vertex 1.650565e-01 7.947949e-02 1.000000e+00
    endloop
  endfacet
  facet normal 0.000000e+00 0.000000e+00 1.000000e+00
    outer loop
      vertex -1.142096e-01 1.432414e-01 1.000000e+00
      vertex 1.142096e-01 1.432414e-01 1.000000e+00
      vertex 4.078165e-02 1.786002e-01 1.000000e+00
    endloop
  endfacet
  facet normal 4.338609e-01 9.009799e-01 1.024905e-16
    outer loop
      vertex 4.078165e-02 1.786002e-01 2.500000e-01
      vertex 4.078165e-02 1.786002e-01 1.000000e+00
      vertex 1.142096e-01 1.432414e-01 1.000000e+00
    endloop
  endfacet
  facet normal 0.000000e+00 0.000000e+00 1.000000e+00
    outer loop
      vertex -1.650565e-01 7.947949e-02 1.000000e+00
      vertex 1.142096e-01 1.432414e-01 1.000000e+00
      vertex -1.142096e-01 1.432414e-01 1.000000e+00
    endloop
  endfacet
  facet normal 4.338609e-01 9.009799e-01 1.092877e-16
    outer loop
      vertex 1.142096e-01 1.432414e-01 2.500000e-01
      vertex 4.078165e-02 1.786002e-01 2.500000e-01
      vertex 1.142096e-01 1.432414e-01 1.000000e+00
    endloop
  endfacet
  facet normal 0.000000e+00 0.000000e+00 1.000000e+00
    outer loop
      vertex -1.142096e-01 1.432414e-01 1.000000e+00
      vertex 4.078165e-02 1.786002e-01 1.000000e+00
      vertex -4.078165e-02 1.786002e-01 1.000000e+00
    endloop
  endfacet
  facet normal 0.000000e+00 1.000000e+00 1.480297e-16
    outer loop
      vertex -4.078165e-02 1.786002e-01 2.500000e-01
      vertex -4.078165e-02 1.786002e-01 1.000000e+00
      vertex 4.078165e-02 1.786002e-01 1.000000e+00
    endloop
  endfacet
  facet normal -3.402949e-16 1.000000e+00 1.850372e-16
    outer loop
      vertex 4.078165e-02 1.786002e-01 2.500000e-01
      vertex -4.078165e-02 1.786002e-01 2.500000e-01
      vertex 4.078165e-02 1.786002e-01 1.000000e+00
    endloop
  endfacet
  facet normal -4.338609e-01 9.009799e-01 2.710793e-16
    outer loop
      vertex -1.142096e-01 1.432414e-01 2.500000e-01
      vertex -1.142096e-01 1.432414e-01 1.000000e+00
      vertex -4.078165e-02 1.786002e-01 1.000000e+00
    endloop
  endfacet
  facet normal -4.338609e-01 9.009799e-01 2.337223e-16
    outer loop
      vertex -4.078165e-02 1.786002e-01 2.500000e-01
      vertex -1.142096e-01 1.432414e-01 2.500000e-01
      vertex -4.078165e-02 1.786002e-01 1.000000e+00
    endloop
  endfacet
  facet normal -7.818411e-01 6.234778e-01 3.354859e-16
    outer loop
      vertex -1.650565e-01 7.947949e-02 2.500000e-01
      vertex -1.650565e-01 7.947949e-02 1.000000e+00
      vertex -1.142096e-01 1.432414e-01 1.000000e+00
    endloop
  endfacet
  facet normal -7.818411e-01 6.234778e-01 3.034371e-16
    outer loop
      vertex -1.142096e-01 1.432414e-01 2.500000e-01
      vertex -1.650565e-01 7.947949e-02 2.500000e-01
      vertex -1.142096e-01 1.432414e-01 1.000000e+00
    endloop
  endfacet
endsolid PRT0001
